<svg xmlns="http://www.w3.org/2000/svg" xmlns:xlink="http://www.w3.org/1999/xlink" version="1.1" width="174.37284" height="140.00176" viewBox="0 0 174.37284 140.00176">
<defs>
<clipPath id="clip_0">
<path transform="matrix(1,0,0,-1,0,140.00176)" d="M39.954347 79.07249H171.3216V115.364528H39.954347Z"/>
</clipPath>
<path id="font_1_50" d="M.5159912 .31925965C.5159912 .42918397 .5029907 .50813296 .45700074 .5780945 .42599488 .62405398 .3639984 .6640625 .28399659 .6640625 .051986696 .6640625 .051986696 .39120484 .051986696 .31925965 .051986696 .2472992 .051986696-.01953125 .28399659-.01953125 .5159912-.01953125 .5159912 .2472992 .5159912 .31925965M.28399659 .008468628C.23799134 .008468628 .1769867 .035446168 .15699768 .117385867 .14299011 .17634583 .14299011 .25830079 .14299011 .33224488 .14299011 .40519715 .14299011 .4811554 .1579895 .53611758 .1789856 .6150665 .24299622 .63604739 .28399659 .63604739 .33799745 .63604739 .3899994 .6030731 .4079895 .545105 .42399598 .4911499 .4249878 .41918946 .4249878 .33224488 .4249878 .25830079 .4249878 .18434143 .4119873 .12138367 .3919983 .030441285 .32398988 .008468628 .28399659 .008468628Z"/>
<clipPath id="clip_2">
<path transform="matrix(1,0,0,-1,0,140.00176)" d="M39.954347 79.07249H171.3216V115.364528H39.954347Z"/>
</clipPath>
<path id="font_1_55" d="M.15499878 .5588074C.20599365 .5458069 .23599243 .5458069 .2519989 .5458069 .38398744 .5458069 .46199037 .6358032 .46199037 .6508026 .46199037 .6618042 .45498658 .6648102 .44999696 .6648102 .44799806 .6648102 .44599916 .6648102 .44198609 .6618042 .41799928 .6528015 .36499024 .6328125 .29100038 .6328125 .2630005 .6328125 .20999146 .6348114 .14498902 .6598053 .1349945 .6648102 .1329956 .6648102 .13198853 .6648102 .11898804 .6648102 .11898804 .6538086 .11898804 .6378021V.34251405C.11898804 .32548524 .11898804 .3134613 .1349945 .3134613 .14399719 .3134613 .14498902 .3154602 .15499878 .32748414 .19799805 .38259889 .25898744 .390625 .2939911 .390625 .35398866 .390625 .3809967 .34251405 .38598634 .33450318 .4039917 .30143739 .4099884 .26335145 .4099884 .20524597 .4099884 .17524719 .4099884 .116256717 .37998963 .07234192 .35499574 .03640747 .31199647 .012466431 .2630005 .012466431 .19799805 .012466431 .1309967 .04838562 .10598755 .11425781 .14399719 .11125183 .16299439 .13624573 .16299439 .16325379 .16299439 .20625305 .12599182 .21424866 .11299133 .21424866 .11099243 .21424866 .06298828 .21424866 .06298828 .1602478 .06298828 .07034302 .14498902-.01953125 .2649994-.01953125 .3929901-.01953125 .5049896 .07533264 .5049896 .20124817 .5049896 .31445313 .4189911 .41862489 .29499818 .41862489 .25099183 .41862489 .19898987 .4076233 .15499878 .36956788V.5588074Z"/>
<path id="font_3_96" d="M.25698854 .69433596 .11898804 .55908206 .13699341 .53808596 .25698854 .639328 .37599183 .53808596 .3939972 .55908206 .25698854 .69433596Z"/>
<path id="font_4_75" d="M.5519867 .6096039C.55999758 .6436157 .56199648 .6516113 .6179962 .6516113 .6299896 .6516113 .6429901 .6516113 .6429901 .6696167 .6429901 .6706085 .6429901 .6826172 .6279907 .6826172 .62098696 .6826172 .5799866 .680603 .57398989 .680603 .5669861 .6796112 .5349884 .6796112 .5149994 .6796112 .4909973 .6796112 .46499635 .680603 .44099427 .680603 .4169922 .680603 .3929901 .6826172 .36999513 .6826172 .3619995 .6826172 .34899903 .6826172 .34899903 .6646118 .34899903 .6516113 .35899354 .6516113 .3829956 .6516113 .3880005 .6516113 .4149933 .6516113 .43998719 .64860537 .46398927 .64660647 .47099305 .64460757 .47099305 .62960818 .47099305 .62260439 .46899415 .61660769 .46798707 .6116028L.35099793 .1465149C.32798768 .055511476 .2599945 .002532959 .20799256 .002532959 .1749878 .002532959 .12599182 .016525269 .11099243 .061523439 .11299133 .060516359 .114990238 .060516359 .12199402 .060516359 .1619873 .060516359 .18699646 .09552002 .18699646 .12451172 .18699646 .1505127 .16699219 .16651917 .14199829 .16651917 .11999512 .16651917 .07598877 .1505127 .07598877 .087509158 .07598877 .022521973 .13198853-.022460938 .20999146-.022460938 .30599977-.022460938 .4099884 .043518068 .43499757 .14251709L.5519867 .6096039Z"/>
<path id="font_5_115" d="M.28399659 .29953004C.2869873 .30451966 .30999757 .34951783 .34899903 .38052369 .36099244 .3885193 .3899994 .4084015 .43598939 .4084015 .44499208 .4084015 .47698976 .4084015 .5029907 .39352418 .47698976 .38452149 .46199037 .3615265 .46199037 .33952333 .46199037 .30752564 .48799134 .30052186 .5019989 .30052186 .5309906 .30052186 .55999758 .32452394 .55999758 .3635254 .55999758 .4163971 .5019989 .44140626 .43798829 .44140626 .4119873 .44140626 .35099793 .4393921 .2899933 .36853028 .2749939 .42140199 .22099304 .44140626 .17999268 .44140626 .13699341 .44140626 .11299133 .4123993 .09799194 .3885193 .07598877 .35151673 .06098938 .29452516 .06098938 .28851319 .06098938 .27749635 .069992069 .27349855 .07899475 .27349855 .09498596 .27349855 .09599304 .28050233 .100997928 .29652406 .11999512 .3735199 .14399719 .4084015 .1769867 .4084015 .20799256 .4084015 .21299744 .3795166 .21299744 .3585205 .21299744 .34152223 .20298767 .30152894 .19599915 .27349855 .18899536 .24647522 .1789856 .20542908 .17399597 .18341065 .16699219 .15837097 .16099549 .13235474 .1539917 .10733032 .14698792 .07929993 .1349945 .029251099 .1349945 .023239136 .1349945 .0012207031 .1519928-.009765625 .16999817-.009765625 .18998719-.009765625 .20899964 .0042266848 .21499634 .024246216 .21798706 .03224182 .25498963 .18341065 .26098634 .2064209L.28399659 .29953004Z"/>
<clipPath id="clip_6">
<path transform="matrix(1,0,0,-1,0,140.00176)" d="M39.954347 79.07249H171.3216V115.364528H39.954347Z"/>
</clipPath>
<clipPath id="clip_7">
<path transform="matrix(1,0,0,-1,0,140.00176)" d="M39.954347 79.07249H171.3216V115.364528H39.954347Z"/>
</clipPath>
<clipPath id="clip_8">
<path transform="matrix(1,0,0,-1,0,140.00176)" d="M39.954347 79.07249H171.3216V115.364528H39.954347Z"/>
</clipPath>
<clipPath id="clip_9">
<path transform="matrix(1,0,0,-1,0,140.00176)" d="M39.954347 79.07249H171.3216V115.364528H39.954347Z"/>
</clipPath>
<clipPath id="clip_10">
<path transform="matrix(1,0,0,-1,0,140.00176)" d="M39.954347 79.07249H171.3216V115.364528H39.954347Z"/>
</clipPath>
<clipPath id="clip_11">
<path transform="matrix(1,0,0,-1,0,140.00176)" d="M39.954347 79.07249H171.3216V115.364528H39.954347Z"/>
</clipPath>
<clipPath id="clip_12">
<path transform="matrix(1,0,0,-1,0,140.00176)" d="M39.954347 79.07249H171.3216V115.364528H39.954347Z"/>
</clipPath>
<clipPath id="clip_13">
<path transform="matrix(1,0,0,-1,0,140.00176)" d="M39.954347 79.07249H171.3216V115.364528H39.954347Z"/>
</clipPath>
<clipPath id="clip_14">
<path transform="matrix(1,0,0,-1,0,140.00176)" d="M39.954347 79.07249H171.3216V115.364528H39.954347Z"/>
</clipPath>
<path id="font_1_51" d="M.33499146 .63612368C.33499146 .6630554 .33299256 .6640625 .30499269 .6640625 .24099732 .6014404 .1499939 .6004486 .10899353 .6004486V.5644531C.1329956 .5644531 .19898987 .5644531 .2539978 .592453V.08203125C.2539978 .04899597 .2539978 .035995485 .1539917 .035995485H.115997318V0C.13398743 .0009918213 .25698854 .0039978029 .2939911 .0039978029 .32499696 .0039978029 .45098878 .0009918213 .47299195 0V.035995485H.43499757C.33499146 .035995485 .33499146 .04899597 .33499146 .08203125V.63612368Z"/>
<path id="font_1_52" d="M.5049896 .18203736H.47099305C.46798707 .16001892 .45799256 .100997928 .44499208 .09098816 .43699647 .084991458 .3600006 .084991458 .34599305 .084991458H.1619873C.2669983 .17803955 .3019867 .20603943 .3619995 .25306703 .43598939 .312088 .5049896 .374115 .5049896 .46914674 .5049896 .5900879 .39898683 .6640625 .2709961 .6640625 .14698792 .6640625 .06298828 .57710269 .06298828 .4851532 .06298828 .43414308 .10598755 .42915345 .115997318 .42915345 .13999939 .42915345 .16899109 .44615174 .16899109 .48214723 .16899109 .5001526 .1619873 .53515627 .10998535 .53515627 .14099121 .6060791 .20899964 .62805178 .2559967 .62805178 .35598756 .62805178 .4079895 .5501404 .4079895 .46914674 .4079895 .38212586 .34599305 .3130951 .31399537 .27708436L.07299805 .038986207C.06298828 .02999878 .06298828 .027999878 .06298828 0H.47499085L.5049896 .18203736Z"/>
<path id="font_1_53" d="M.272995 .33428956C.35099793 .33428956 .40699769 .2803192 .40699769 .1733551 .40699769 .04940796 .33499146 .012466431 .2769928 .012466431 .23699951 .012466431 .14898682 .0234375 .10699463 .082351688 .1539917 .084350589 .16499329 .11735535 .16499329 .13835144 .16499329 .17034912 .14099121 .19335938 .10998535 .19335938 .08198547 .19335938 .053985597 .17634583 .053985597 .13534546 .053985597 .041412355 .1579895-.01953125 .2789917-.01953125 .41799928-.01953125 .5139923 .07336426 .5139923 .1733551 .5139923 .2513275 .44999696 .32929994 .33999635 .35229493 .44499208 .39024354 .48298646 .4650879 .48298646 .5260773 .48298646 .60505679 .3919983 .6640625 .2809906 .6640625 .16999817 .6640625 .084991458 .61006167 .084991458 .5300751 .084991458 .49606324 .10699463 .47706605 .13699341 .47706605 .16799927 .47706605 .18798828 .5000763 .18798828 .5280762 .18798828 .5570679 .16799927 .57806399 .13699341 .5800781 .17199707 .62405398 .24099732 .63505557 .27799989 .63505557 .32299806 .63505557 .38598634 .6130676 .38598634 .5260773 .38598634 .48406983 .37199403 .43814088 .34599305 .4072113 .31298829 .36927796 .2849884 .3672943 .23498535 .36428834 .20999146 .3623047 .20799256 .3623047 .20298767 .3612976 .20098877 .3612976 .19299317 .3592987 .19299317 .34829713 .19299317 .33428956 .20199585 .33428956 .21899414 .33428956H.272995Z"/>
<path id="font_1_54" d="M.5289917 .1640625V.20005799H.41799928V.64582827C.41799928 .66682437 .41799928 .6738281 .3959961 .6738281 .38398744 .6738281 .37998963 .6738281 .36999513 .65982058L.038986207 .20005799V.1640625H.33299256V.08201599C.33299256 .04800415 .33299256 .035995485 .2519989 .035995485H.22499085V0C.2749939 .0019989014 .33898927 .0039978029 .375 .0039978029 .4119873 .0039978029 .47599793 .0019989014 .526001 0V.035995485H.49899293C.41799928 .035995485 .41799928 .04800415 .41799928 .08201599V.1640625H.5289917M.33999635 .5658722V.20005799H.07598877L.33999635 .5658722Z"/>
<path id="font_15_137" d="M.5970001 .16905213H.56900027C.5189972 .06100464 .47599793 .036987306 .33299256 .036987306H.30599977C.25698854 .036987306 .21499634 .041992189 .20799256 .04899597 .20298767 .052001954 .20098877 .06300354 .20098877 .08001709V.32714845H.35499574C.43699647 .32714845 .45199586 .3141327 .46499635 .23109436H.48799134V.4631195H.46499635C.45799256 .4221344 .45399476 .407135 .44299317 .3931427 .42999269 .3761444 .4019928 .36813355 .35499574 .36813355H.20098877V.59010317C.20098877 .618103 .20698548 .62409976 .23399353 .62409976H.36898805C.48199464 .62409976 .5039978 .60910037 .5209961 .51911929H.54599L.54299929 .6621094H.011993408V.6430969C.085998538 .6371002 .09899902 .6231079 .09899902 .5530853V.10900879C.09899902 .039001466 .084991458 .023986817 .011993408 .018997193V0H.5519867L.5970001 .16905213Z"/>
<path id="font_15_181" d="M.008987427 .39320375C.017990113 .39419557 .024993897 .39419557 .033996583 .39419557 .067993167 .39419557 .07499695 .38420106 .07499695 .33720399V-.13079834C.07499695-.1828003 .06399536-.19380188 .004989624-.19979859V-.21679688H.24699402V-.19880677C.17199707-.19779969 .15899658-.1867981 .15899658-.123794559V.033218385C.19400025 .00022888184 .21798706-.009765625 .2599945-.009765625 .37799073-.009765625 .46998597 .10217285 .46998597 .24707031 .46998597 .37097169 .3999939 .45996095 .30299378 .45996095 .24699402 .45996095 .20298767 .43495179 .15899658 .3809662V.45794679L.15299988 .45996095C.09899902 .43894959 .06399536 .4259491 .008987427 .4089508V.39320375M.15899658 .33399964C.15899658 .36398316 .21499634 .39994813 .26098634 .39994813 .33499146 .39994813 .38398744 .32400514 .38398744 .2080841 .38398744 .09716797 .33499146 .022232056 .2630005 .022232056 .21598816 .022232056 .15899658 .05819702 .15899658 .08818054V.33399964Z"/>
<path id="font_15_174" d="M.1749878 .45996095 .019989014 .40527345V.3902588L.027999878 .39126588C.039993287 .39326478 .052993776 .39427186 .06199646 .39427186 .085998538 .39427186 .09498596 .37826539 .09498596 .33422853V.10205078C.09498596 .02999878 .084991458 .018997193 .015991211 .01499939V0H.25299073V.01499939C.18699646 .019989014 .1789856 .02999878 .1789856 .10205078V.45695497L.1749878 .45996095M.12799073 .6826172C.100997928 .6826172 .07798767 .65960696 .07798767 .63160708 .07798767 .6036072 .099990848 .5806122 .12799073 .5806122 .15699768 .5806122 .17999268 .60261538 .17999268 .63160708 .17999268 .65960696 .15699768 .6826172 .12799073 .6826172Z"/>
<path id="font_15_184" d="M.31498719 .31419374 .31098939 .4501953H.2999878L.2979889 .44818116C.2889862 .44119264 .28799439 .44018556 .28399659 .44018556 .27799989 .44018556 .2679901 .44218446 .25698854 .44718934 .23498535 .4549713 .21299744 .45898438 .18699646 .45898438 .10798645 .45898438 .050994874 .4079895 .050994874 .33602906 .050994874 .28007508 .08299255 .24009705 .16799927 .19212342L.22599793 .15913391C.26098634 .1391449 .27799989 .11515808 .27799989 .08418274 .27799989 .04020691 .24598694 .01222229 .19499207 .01222229 .16099549 .01222229 .12998963 .025222779 .11099243 .047210695 .08999634 .07218933 .08099365 .095184329 .067993167 .15214539H.051986696V-.003768921H.06498718C.07199097 .006225586 .07598877 .008224487 .08799744 .008224487 .09700012 .0079956059 .11099243 .005996704 .13398743 0 .1619873-.0057678224 .18899536-.009765625 .20698548-.009765625 .28399659-.009765625 .34799195 .048202516 .34799195 .11816406 .34799195 .1681366 .32398988 .20111084 .2639923 .23709107L.1559906 .3010559C.12799073 .31704713 .11299133 .34202577 .11299133 .36901856 .11299133 .40899659 .14399719 .4369812 .18998719 .4369812 .24699402 .4369812 .2769928 .40299989 .2999878 .31404115L.31498719 .31419374Z"/>
<path id="font_15_180" d="M.25 .45996095C.11999512 .45996095 .0289917 .3639984 .0289917 .22608948 .0289917 .09118652 .12199402-.009765625 .24798584-.009765625 .37399293-.009765625 .46998597 .09617615 .46998597 .23408509 .46998597 .3650055 .37799073 .45996095 .25 .45996095M.23699951 .4319458C.32099916 .4319458 .37998963 .3360138 .37998963 .19911194 .37998963 .08618164 .33499146 .018234253 .2599945 .018234253 .22099304 .018234253 .18399048 .04220581 .16299439 .08218384 .1349945 .13415528 .11898804 .20410156 .11898804 .27505494 .11898804 .36999513 .1659851 .4319458 .23699951 .4319458Z"/>
<path id="font_15_169" d="M.34399415-.009765625 .4909973 .04222107V.05821228C.47299195 .05722046 .47099305 .05722046 .46798707 .05722046 .43199159 .05722046 .42399598 .06820679 .42399598 .11418152V.680954L.4189911 .6829529C.37098695 .6659546 .33599855 .6559601 .27198792 .63894656V.6229553C.27999879 .62394717 .28599549 .62394717 .2939911 .62394717 .33099366 .62394717 .33999635 .61395266 .33999635 .5729523V.41696168C.3019867 .44895936 .2749939 .45996095 .23498535 .45996095 .11999512 .45996095 .026992798 .34701539 .026992798 .20510865 .026992798 .07720947 .101989749-.009765625 .21199036-.009765625 .2679901-.009765625 .30599977 .010223389 .33999635 .05722046V-.0067749025L.34399415-.009765625M.33999635 .10218811C.33999635 .095184329 .33299256 .08319092 .32299806 .07220459 .30499269 .052215578 .27999879 .04222107 .25099183 .04222107 .16799927 .04222107 .11299133 .122177127 .11299133 .24508667 .11299133 .3580017 .1619873 .4319458 .23799134 .4319458 .29100038 .4319458 .33999635 .3849945 .33999635 .33203126V.10218811Z"/>
<path id="font_15_170" d="M.4079895 .16427613C.3600006 .08824158 .31698609 .05921936 .25299073 .05921936 .19599915 .05921936 .15299988 .08824158 .12399292 .14526367 .10598755 .18328858 .09899902 .2163086 .09700012 .27734376H.40499879C.39698792 .34222413 .3869934 .37112428 .3619995 .40301515 .33198548 .43894959 .28599549 .45996095 .23399353 .45996095 .18399048 .45996095 .13699341 .44195558 .09899902 .40800477 .051986696 .36714173 .024993897 .29634095 .024993897 .21430969 .024993897 .07623291 .09700012-.009765625 .21199036-.009765625 .30699159-.009765625 .38198854 .049224855 .42399598 .15727234L.4079895 .16427613M.09899902 .30934144C.10998535 .3870697 .14399719 .4239502 .20498657 .4239502 .2659912 .4239502 .2899933 .39604188 .30299378 .30934144H.09899902Z"/>
<clipPath id="clip_16">
<path transform="matrix(1,0,0,-1,0,140.00176)" d="M39.954347 28.838238H171.3216V65.13028H39.954347Z"/>
</clipPath>
<clipPath id="clip_17">
<path transform="matrix(1,0,0,-1,0,140.00176)" d="M39.954347 28.838238H171.3216V65.13028H39.954347Z"/>
</clipPath>
<path id="font_5_100" d="M.46398927 .38404847C.45098878 .38105775 .4169922 .36405946 .4169922 .32705689 .4169922 .30204774 .43598939 .2890625 .45700074 .2890625 .48098756 .2890625 .5149994 .3060608 .5149994 .35404969 .5149994 .41940309 .43899537 .44140626 .375 .44140626 .21998596 .44140626 .07499695 .3070526 .07499695 .1681366 .07499695 .07319641 .14399719-.009765625 .272995-.009765625 .46099855-.009765625 .5329895 .09017944 .5329895 .10118103 .5329895 .11016846 .5219879 .121170047 .5139923 .121170047 .5089874 .121170047 .5079956 .120162967 .49299623 .10517883 .43899537 .04321289 .34599305 .023223877 .2749939 .023223877 .19198609 .023223877 .1619873 .077194217 .1619873 .1351471 .1619873 .13815308 .1639862 .2540741 .23298645 .3390503 .24798584 .35604859 .2999878 .40838624 .37599183 .40838624 .3809967 .40838624 .43399049 .40838624 .46398927 .38404847Z"/>
<clipPath id="clip_18">
<path transform="matrix(1,0,0,-1,0,140.00176)" d="M39.954347 28.838238H171.3216V65.13028H39.954347Z"/>
</clipPath>
<clipPath id="clip_19">
<path transform="matrix(1,0,0,-1,0,140.00176)" d="M39.954347 28.838238H171.3216V65.13028H39.954347Z"/>
</clipPath>
<clipPath id="clip_20">
<path transform="matrix(1,0,0,-1,0,140.00176)" d="M39.954347 28.838238H171.3216V65.13028H39.954347Z"/>
</clipPath>
<clipPath id="clip_21">
<path transform="matrix(1,0,0,-1,0,140.00176)" d="M39.954347 28.838238H171.3216V65.13028H39.954347Z"/>
</clipPath>
<clipPath id="clip_22">
<path transform="matrix(1,0,0,-1,0,140.00176)" d="M39.954347 28.838238H171.3216V65.13028H39.954347Z"/>
</clipPath>
<clipPath id="clip_23">
<path transform="matrix(1,0,0,-1,0,140.00176)" d="M39.954347 28.838238H171.3216V65.13028H39.954347Z"/>
</clipPath>
<clipPath id="clip_24">
<path transform="matrix(1,0,0,-1,0,140.00176)" d="M39.954347 28.838238H171.3216V65.13028H39.954347Z"/>
</clipPath>
<clipPath id="clip_25">
<path transform="matrix(1,0,0,-1,0,140.00176)" d="M39.954347 28.838238H171.3216V65.13028H39.954347Z"/>
</clipPath>
<clipPath id="clip_26">
<path transform="matrix(1,0,0,-1,0,140.00176)" d="M39.954347 28.838238H171.3216V65.13028H39.954347Z"/>
</clipPath>
<clipPath id="clip_27">
<path transform="matrix(1,0,0,-1,0,140.00176)" d="M39.954347 28.838238H171.3216V65.13028H39.954347Z"/>
</clipPath>
<path id="font_15_133" d="M.70599368 .018997193C.6609955 .021987915 .651001 .031982423 .6159973 .10592651L.36698915 .6738281H.34700013L.13899231 .18286133C.07499695 .036972047 .06298828 .020996094 .01499939 .018997193V0H.21299744V.018997193C.16499329 .018997193 .14498902 .031982423 .14498902 .059951784 .14498902 .07194519 .147995 .0859375 .15299988 .09892273L.19898987 .21583557H.46099855L.5019989 .119903568C.5139923 .092926029 .5209961 .06695557 .5209961 .052963258 .5209961 .02798462 .5039978 .019989014 .45098878 .018997193V0H.70599368V.018997193M.21598816 .25683595 .33099366 .53182986 .44699098 .25683595H.21598816Z"/>
<path id="font_15_135" d="M.6199951 .4499359 .61099246 .67578127H.58999636C.58399966 .6547699 .56799319 .6427765 .5479889 .6427765 .5389862 .6427765 .5239868 .6457672 .5089874 .6517792 .45999146 .6677704 .4099884 .67578127 .36299134 .67578127 .2809906 .67578127 .19799805 .6447754 .13598633 .58981326 .06599426 .52786257 .027999878 .43495179 .027999878 .32505799 .027999878 .23213196 .057998659 .14620972 .10899353 .089263919 .16899109 .02432251 .26098634-.013671875 .3600006-.013671875 .47299195-.013671875 .57199099 .032318117 .6329956 .11325073L.61499026 .13122559C.54100039 .060287477 .47499085 .030319214 .3919983 .030319214 .32899476 .030319214 .272995 .050308229 .22999573 .088272098 .1749878 .13722229 .14399719 .22714234 .14399719 .3380432 .14399719 .5188751 .23699951 .6357727 .38198854 .6357727 .43899537 .6357727 .4909973 .61479189 .5309906 .5748291 .5629883 .54286196 .5779877 .5148773 .5970001 .4499359H.6199951Z"/>
<path id="font_15_152" d="M.2539978 .6201019V.120010379C.2539978 .034988405 .24299622 .023986817 .1599884 .018997193V0H.45199586V.018997193C.36999513 .022994996 .35598756 .035995485 .35598756 .10900879V.6201019H.4099884C.5239868 .6201019 .54599 .60209658 .56900027 .4920807H.59298709L.58699038 .6621094H.022994996L.016998291 .4920807H.040985109C.06498718 .60110476 .08799744 .6201019 .19999695 .6201019H.2539978Z"/>
<path id="font_15_151" d="M.44699098 .6761017H.42599488C.42199708 .6531067 .41099549 .6421051 .3939972 .6421051 .38398744 .6421051 .36698915 .6461029 .34999085 .6540985 .31298829 .6677704 .27598573 .67578127 .24398804 .67578127 .20098877 .67578127 .15699768 .6587677 .12399292 .629776 .08898926 .59880068 .070999149 .556839 .070999149 .5048828 .070999149 .42495729 .114990238 .36901856 .22698975 .3100586 .29899598 .27209474 .35099793 .23114014 .37599183 .19316101 .3849945 .18017578 .3899994 .15919495 .3899994 .13522339 .3899994 .06828308 .33999635 .022323609 .2669983 .022323609 .17799378 .022323609 .114990238 .07727051 .06498718 .19915772H.041992189L.07199097-.012680054H.09399414C.09498596 .005996704 .10699463 .019989014 .12199402 .019989014 .1329956 .019989014 .1499939 .015991211 .16899109 .008987427 .20698548-.0056762697 .24699402-.013671875 .2869873-.013671875 .4019928-.013671875 .4909973 .0652771 .4909973 .16819763 .4909973 .25012208 .43598939 .31506349 .3039856 .3860016 .19898987 .4439392 .15699768 .48789979 .15699768 .54185488 .15699768 .59680178 .19898987 .6347809 .26098634 .6347809 .30599977 .6347809 .34799195 .6157837 .3829956 .5798187 .4139862 .54785159 .42799378 .5218811 .44400025 .46292115H.46899415L.44699098 .6761017Z"/>
<path id="font_15_138" d="M.47898866 .23114014V.4631195H.45599366C.44400025 .38313294 .42599488 .36813355 .34599305 .36813355H.20098877V.59010317C.20098877 .618103 .20599365 .62409976 .23298645 .62409976H.36898805C.48199464 .62409976 .5039978 .60910037 .5209961 .51911929H.54599L.54299929 .6621094H.011993408V.6430969C.085998538 .6371002 .09899902 .6231079 .09899902 .55311587V.12004089C.09899902 .037002565 .08799744 .024002076 .011993408 .018997193V0H.2919922V.018997193C.21499634 .022994996 .20098877 .037002565 .20098877 .10903931V.32714845H.34599305C.4269867 .32714845 .44400025 .3121338 .45599366 .23109436L.47898866 .23114014Z"/>
<path id="font_15_244" d="M.29499818 .67578127C.22099304 .6277771 .19099427 .6017761 .1539917 .5557709 .08299255 .46878053 .04798889 .3687744 .04798889 .25177003 .04798889 .12477112 .084991458 .026779175 .17298889-.07522583 .21398926-.12322998 .23999024-.14523316 .2919922-.17723084L.3039856-.16122437C.22399903-.098220828 .19599915-.06323242 .16899109 .011779785 .14498902 .07876587 .13398743 .1547699 .13398743 .254776 .13398743 .35977174 .14698792 .44177247 .17399597 .5037689 .20199585 .56578066 .23199463 .6017761 .3039856 .6597748L.29499818 .67578127Z"/>
<path id="font_15_147" d="M.36099244 .67578127C.16999817 .67578127 .033996583 .53186038 .033996583 .33103944 .033996583 .23712158 .06599426 .14620972 .11999512 .088256839 .17799378 .025314331 .2669983-.013671875 .35499574-.013671875 .5519867-.013671875 .6879883 .1262207 .6879883 .32704164 .6879883 .42596437 .6589966 .5108795 .60398867 .5708313 .54100039 .6397705 .45700074 .67578127 .36099244 .67578127M.36099244 .6397705C.40699769 .6397705 .45298768 .6217804 .4889984 .58981326 .54299929 .54086306 .57398989 .4469452 .57398989 .3280487 .57398989 .269104 .5609894 .2001648 .54100039 .14820862 .5319977 .12322998 .5149994 .09825134 .49198915 .07527161 .45700074 .040298463 .4119873 .022323609 .35899354 .022323609 .31298829 .022323609 .2679901 .040298463 .23298645 .0712738 .18099976 .11723328 .147995 .21813965 .147995 .32904054 .147995 .43095399 .17599488 .52786257 .21798706 .5748291 .25698854 .6177826 .30599977 .6397705 .36099244 .6397705Z"/>
<path id="font_15_186" d="M.47898866 .050186159H.47399903C.42799378 .050186159 .4169922 .061187746 .4169922 .10719299V.4501953H.25898744V.43318177C.32099916 .43019105 .33299256 .42018128 .33299256 .37019349V.13522339C.33299256 .10722351 .32798768 .09321594 .31399537 .082229617 .2869873 .06022644 .2559967 .048233034 .22599793 .048233034 .18699646 .048233034 .15499878 .082229617 .15499878 .1242218V.4501953H.008987427V.43618775C.056991579 .43318177 .070999149 .41818238 .070999149 .37219239V.120224C.070999149 .041229249 .11898804-.009765625 .19198609-.009765625 .22898865-.009765625 .2679901 .006225586 .29499818 .033233644L.33799745 .07621765V-.0067749025L.34199525-.0087890629C.3919983 .011199951 .42799378 .022201539 .47898866 .036209108V.050186159Z"/>
<path id="font_15_183" d="M.0069885256 .3899536C.020996094 .3929596 .02999878 .39396668 .041992189 .39396668 .066986087 .39396668 .07598877 .3779602 .07598877 .33396913V.083984378C.07598877 .033996583 .068984989 .026992798 .004989624 .01499939V0H.24499512V.01499939C.1769867 .017990113 .1599884 .032989503 .1599884 .08998108V.31497193C.1599884 .3469696 .20298767 .3969574 .22999573 .3969574 .23599243 .3969574 .24499512 .3919525 .2559967 .381958 .27198792 .3679657 .2829895 .361969 .29599 .361969 .31999208 .361969 .33499146 .3789673 .33499146 .4069519 .33499146 .43995667 .31399537 .45996095 .27999879 .45996095 .23799134 .45996095 .20899964 .43695069 .1599884 .3659668V.45794679L.15499878 .45996095C.101989749 .43795777 .06599426 .42495729 .0069885256 .40596009V.3899536Z"/>
<path id="font_15_245" d="M.037994386-.17723084C.11199951-.12922669 .14199829-.10322571 .1789856-.05722046 .25 .029769898 .2849884 .129776 .2849884 .24676514 .2849884 .37477113 .24798584 .47177125 .1599884 .57377627 .11898804 .6217804 .09298706 .6437683 .040985109 .67578127L.0289917 .6597748C.10899353 .59677127 .13598633 .5617676 .1639862 .48677064 .18798828 .4197693 .19898987 .34378053 .19898987 .24377442 .19898987 .13977051 .18598938 .056777955 .15899658-.0042266848 .1309967-.067230228 .100997928-.10322571 .0289917-.16122437L.037994386-.17723084Z"/>
<path id="font_15_153" d="M.61099246 .515152C.61099246 .6171112 .6230011 .6331024 .7049866 .6430969V.6621094H.47299195V.6430969C.5509949 .6371002 .5669861 .6151123 .5669861 .515152V.24523926C.5669861 .17726135 .55999758 .13928223 .5439911 .109298709 .5169983 .061309816 .45298768 .030319214 .37799073 .030319214 .30699159 .030319214 .2579956 .05430603 .23098755 .10128784 .21299744 .13328552 .20599365 .17027283 .20599365 .23324585V.5531311C.20599365 .6251068 .21699524 .6361084 .29699708 .6430969V.6621094H.01399231V.6430969C.09298706 .6371002 .10398865 .6261139 .10398865 .5531311V.24124146C.10398865 .0683136 .18499756-.013671875 .35499574-.013671875 .46398927-.013671875 .5389862 .021316529 .5779877 .08929443 .60198977 .13128662 .61099246 .17726135 .61099246 .25424195V.515152Z"/>
<path id="font_15_146" d="M.6119995-.0107421879V.5151367C.6119995 .575119 .621994 .6121063 .6409912 .6251068 .6549988 .6351013 .6689911 .6390991 .70700076 .6430969V.6621094H.47200013V.6430969C.5099945 .6401062 .5239868 .6361084 .5389862 .6271057 .5589905 .6131134 .56799319 .5771179 .56799319 .5151367V.1782074L.18299866 .6621094H.011993408V.6430969C.054992677 .6430969 .068984989 .6351013 .10899353 .5881195V.1472168C.10899353 .04399109 .09498596 .024993897 .011993408 .018997193V0H.24699402V.018997193C.16999817 .022994996 .15299988 .04598999 .15299988 .14698792V.5389862L.59498599-.0107421879H.6119995Z"/>
<path id="font_15_141" d="M.114990238 .10900879C.114990238 .033996583 .101989749 .021987915 .017990113 .018997193V0H.31498719V.018997193C.23298645 .021987915 .21699524 .035995485 .21699524 .10900879V.5530853C.21699524 .62609866 .23098755 .6390991 .31498719 .6430969V.6621094H.017990113V.6430969C.102996829 .6381073 .114990238 .6271057 .114990238 .5530853V.10900879Z"/>
<path id="font_15_150" d="M.6589966 .018997193C.62098696 .021987915 .6009979 .03199768 .57199099 .06599426L.3659973 .31904603C.43299867 .3320465 .46299745 .34405519 .49598695 .37106324 .5279999 .3970642 .5469971 .43907167 .5469971 .48608399 .5469971 .52908328 .5339966 .5660858 .5079956 .5950928 .46998597 .6361084 .3869934 .6621094 .29299928 .6621094H.016998291V.6430969C.09199524 .6351013 .101989749 .62409976 .101989749 .5530853V.120010379C.101989749 .037002565 .09199524 .024993897 .016998291 .018997193V0H.2939911V.018997193C.21699524 .023986817 .20399475 .037002565 .20399475 .10900879V.30604554L.2599945 .30804444 .49798585 0H.6589966V.018997193M.20399475 .58909609C.20399475 .61709597 .21499634 .6251068 .25498963 .6251068 .37998963 .6251068 .43798829 .58210757 .43798829 .48809815 .43798829 .4380951 .4169922 .3961029 .3809967 .3771057 .33499146 .35110475 .2999878 .34510804 .20399475 .34309388V.58909609Z"/>
<path id="font_15_145" d="M.673996 .5730896V.120010379C.673996 .037002565 .6619873 .023986817 .58299258 .018997193V0H.86299136V.018997193C.7899933 .023986817 .776001 .037994386 .776001 .10900879V.5530853C.776001 .62409976 .78900149 .6371002 .86299136 .6430969V.6621094H.6639862L.44299317 .15701294 .21199036 .6621094H.01399231V.6430969C.09599304 .6381073 .10899353 .62609866 .10899353 .5530853V.14701844C.10899353 .04399109 .09498596 .024993897 .011993408 .018997193V0H.24699402V.018997193C.16999817 .022994996 .15299988 .04598999 .15299988 .14701844V.5500946L.4039917 0H.41799928L.673996 .5730896Z"/>
<path id="font_15_148" d="M.20199585 .29107667C.22799683 .28907777 .24499512 .28808595 .2709961 .28808595 .34899903 .28808595 .40299989 .29808045 .44599916 .32208253 .5059967 .3540802 .5419922 .41508485 .5419922 .48109437 .5419922 .52308657 .5279999 .5610962 .5009918 .59010317 .46099855 .63409426 .37399293 .6621094 .27999879 .6621094H.015991211V.6430969C.08999634 .6351013 .099990848 .6251068 .099990848 .5530853V.120010379C.099990848 .035995485 .09199524 .026000977 .015991211 .018997193V0H.29599V.018997193C.21699524 .021987915 .20199585 .035995485 .20199585 .10900879V.29107667M.20199585 .591095C.20199585 .618103 .20899964 .6251068 .23599243 .6251068 .37098695 .6251068 .43299867 .5780945 .43299867 .4750824 .43299867 .37808229 .37399293 .32807923 .25898744 .32807923 .23899842 .32807923 .22499085 .32907105 .20199585 .3310852V.591095Z"/>
<path id="font_15_139" d="M.70899966 .35403443H.45399476V.3360443C.49699403 .3330536 .5089874 .3300476 .5209961 .322052 .5359955 .31306459 .5419922 .29008485 .5419922 .24711609V.08526611C.5419922 .05329895 .48098756 .026321412 .40899659 .026321412 .24598694 .026321412 .1459961 .14021302 .1459961 .3260498 .1459961 .41996766 .17399597 .5108948 .21798706 .559845 .2619934 .60879519 .32398988 .6357727 .3919983 .6357727 .44799806 .6357727 .49699403 .6167908 .5359955 .5808258 .56599429 .55285647 .58200076 .5258789 .6069946 .4649353H.6299896L.621994 .67578127H.59999087C.59399417 .6567688 .57598879 .6427765 .5549927 .6427765 .54499819 .6427765 .5289917 .6457672 .5109863 .652771 .46598817 .6677704 .41999818 .67578127 .375 .67578127 .1749878 .67578127 .03199768 .5288696 .03199768 .32505799 .03199768 .22714234 .05899048 .15220642 .114990238 .09326172 .18199158 .02432251 .27799989-.013671875 .3880005-.013671875 .47399903-.013671875 .598999 .021316529 .6389923 .056289674V.2591095C.6389923 .3180542 .651001 .3310547 .70899966 .3360443V.35403443Z"/>
<path id="font_15_136" d="M.10398865 .10899353C.10398865 .036987306 .09199524 .023986817 .015991211 .018997193V0H.2999878C.41600038 0 .5209961 .032989503 .58299258 .08900452 .647995 .14801026 .68499758 .23703003 .68499758 .3340454 .68499758 .424057 .6549988 .5020752 .59999087 .55708315 .5319977 .62609866 .4229889 .6621094 .28599549 .6621094H.015991211V.6430969C.09498596 .6361084 .10398865 .6271057 .10398865 .5531006V.10899353M.20599365 .5860901C.20599365 .61709597 .21699524 .6251068 .2579956 .6251068 .34399415 .6251068 .40899659 .60910037 .45700074 .5750885 .5349884 .5210724 .57598879 .4350586 .57598879 .32704164 .57598879 .20903015 .5349884 .12501526 .45399476 .07800293 .40299989 .04899597 .34498597 .036987306 .2579956 .036987306 .21798706 .036987306 .20599365 .04598999 .20599365 .07800293V.5860901Z"/>
<path id="font_15_157" d="M.7029877 .6621094H.48399354V.6430969C.5359955 .6421051 .5529938 .6341095 .5529938 .61009219 .5529938 .60009768 .5479889 .588089 .5389862 .5730896L.3959961 .3470459 .24798584 .5690918C.23699951 .58509829 .23098755 .60209658 .23098755 .61309817 .23098755 .6311035 .24499512 .6401062 .2769928 .6421051 .2809906 .6421051 .29100038 .6421051 .3019867 .6430969V.6621094H.021987915V.6430969C.069992069 .641098 .083999637 .6271057 .18399048 .48608399L.31498719 .29403688V.120010379C.31498719 .032989503 .30499269 .022994996 .21398926 .018997193V0H.519989V.018997193C.43099977 .020996094 .4169922 .032989503 .4169922 .10900879V.30303956L.5649872 .52908328C.6259918 .61709597 .6519928 .6390991 .7029877 .6430969V.6621094Z"/>
</defs>
<path transform="matrix(1,0,0,-1,0,140.00176)" d="M0 0H174.37284V140.00176H0Z" fill="#ffffff"/>
<path transform="matrix(1,0,0,-1,0,140.00176)" d="M39.954347 79.07248H171.3216V115.36452H39.954347Z" fill="#ffffff"/>
<path transform="matrix(1,0,0,-1,0,140.00176)" d="M40.94955 79.07248V73.07248" fill="#333333"/>
<path transform="matrix(1,0,0,-1,0,140.00176)" stroke-width="1.25" stroke-linecap="butt" stroke-linejoin="round" fill="none" stroke="#333333" d="M40.94955 79.07248V73.07248"/>
<path transform="matrix(1,0,0,-1,0,140.00176)" d="M65.82971 79.07248V73.07248" fill="#333333"/>
<path transform="matrix(1,0,0,-1,0,140.00176)" stroke-width="1.25" stroke-linecap="butt" stroke-linejoin="round" fill="none" stroke="#333333" d="M65.82971 79.07248V73.07248"/>
<path transform="matrix(1,0,0,-1,0,140.00176)" d="M90.70988 79.07248V73.07248" fill="#333333"/>
<path transform="matrix(1,0,0,-1,0,140.00176)" stroke-width="1.25" stroke-linecap="butt" stroke-linejoin="round" fill="none" stroke="#333333" d="M90.70988 79.07248V73.07248"/>
<path transform="matrix(1,0,0,-1,0,140.00176)" d="M115.590038 79.07248V73.07248" fill="#333333"/>
<path transform="matrix(1,0,0,-1,0,140.00176)" stroke-width="1.25" stroke-linecap="butt" stroke-linejoin="round" fill="none" stroke="#333333" d="M115.590038 79.07248V73.07248"/>
<path transform="matrix(1,0,0,-1,0,140.00176)" d="M140.4702 79.07248V73.07248" fill="#333333"/>
<path transform="matrix(1,0,0,-1,0,140.00176)" stroke-width="1.25" stroke-linecap="butt" stroke-linejoin="round" fill="none" stroke="#333333" d="M140.4702 79.07248V73.07248"/>
<path transform="matrix(1,0,0,-1,0,140.00176)" d="M165.35036 79.07248V73.07248" fill="#333333"/>
<path transform="matrix(1,0,0,-1,0,140.00176)" stroke-width="1.25" stroke-linecap="butt" stroke-linejoin="round" fill="none" stroke="#333333" d="M165.35036 79.07248V73.07248"/>
<g clip-path="url(#clip_0)">
<path transform="matrix(1,0,0,-1,0,140.00176)" stroke-width=".5" stroke-linecap="round" stroke-linejoin="round" fill="none" stroke="#e3e3e3" d="M39.954347 87.86079H171.3216"/>
</g>
<path transform="matrix(1,0,0,-1,0,140.00176)" d="M39.954347 87.86079H33.954347" fill="#333333"/>
<path transform="matrix(1,0,0,-1,0,140.00176)" stroke-width="1.25" stroke-linecap="butt" stroke-linejoin="round" fill="none" stroke="#333333" d="M39.954347 87.86079H33.954347"/>
<use data-text="0" xlink:href="#font_1_50" transform="matrix(6.973848,0,0,-6.973848,26.483107,54.505067)" fill="#333333"/>
<g clip-path="url(#clip_2)">
<path transform="matrix(1,0,0,-1,0,140.00176)" stroke-width=".5" stroke-linecap="round" stroke-linejoin="round" fill="none" stroke="#e3e3e3" d="M39.954347 105.70746H171.3216"/>
</g>
<path transform="matrix(1,0,0,-1,0,140.00176)" d="M39.954347 105.70746H33.954347" fill="#333333"/>
<path transform="matrix(1,0,0,-1,0,140.00176)" stroke-width="1.25" stroke-linecap="butt" stroke-linejoin="round" fill="none" stroke="#333333" d="M39.954347 105.70746H33.954347"/>
<use data-text="5" xlink:href="#font_1_55" transform="matrix(6.973848,0,0,-6.973848,18.54063,36.658395)" fill="#333333"/>
<use data-text="0" xlink:href="#font_1_50" transform="matrix(6.973848,0,0,-6.973848,22.508749,36.658395)" fill="#333333"/>
<use data-text="0" xlink:href="#font_1_50" transform="matrix(6.973848,0,0,-6.973848,26.476868,36.658395)" fill="#333333"/>
<use data-text="&#x02c6;" xlink:href="#font_3_96" transform="matrix(0,-8.966376,-8.966376,-0,10.332991,44.857057)" fill="#333333"/>
<use data-text="J" xlink:href="#font_4_75" transform="matrix(0,-8.966376,-8.966376,-0,12.599485,47.05507)" fill="#333333"/>
<use data-text="r" xlink:href="#font_5_115" transform="matrix(0,-5.977584,-5.977584,-0,13.595734,41.9776)" fill="#333333"/>
<g clip-path="url(#clip_6)">
<path transform="matrix(1,0,0,-1,0,140.00176)" d="M45.925584 81.83607 47.16959 81.75974 48.413599 82.12448 49.657609 82.338428 50.901617 82.38481 52.145624 82.258388 53.38963 81.7522 54.63364 81.79471 55.877649 82.06886 57.121656 82.02554 58.365667 82.07109 59.609674 82.163578 60.85368 82.09406 62.097688 81.97856 63.341699 81.91812 64.5857 82.02227 65.82971 81.7921 67.07372 91.12723 68.317729 94.38965 69.56174 97.42825 70.80575 100.70573 72.04975 101.86132 73.29376 102.56471 74.537769 102.600078 75.78178 102.436519 77.02579 102.34274 78.26979 102.76229 79.5138 102.96273 80.75781 102.32857 82.001819 102.3898 83.24583 103.04463 84.48984 102.19039 85.73384 102.17798 86.97785 102.33555 88.221858 102.09886 89.465869 102.374599 90.70988 102.10203 91.95388 102.06961 93.19789 101.244709 94.4419 101.50504 95.685909 102.3533 96.92992 101.84008 98.17392 101.607997 99.41793 101.86487 100.66194 102.27002 101.905948 102.20021 103.149959 101.19324 104.39397 101.83846 105.63797 101.961009 106.88198 102.10488 108.125988 102.23124 109.369998 101.979228 110.614009 102.206089 111.85801 102.63469 113.10202 102.10543 114.34603 102.92361 115.590038 103.045108 116.834049 102.48634 118.07806 102.65359 119.32206 102.431697 120.56607 100.157398 121.810077 100.4715 123.054088 100.23361 124.298099 95.670909 125.5421 99.99323 126.78611 102.60117 128.03012 101.999988 129.27413 101.92711 130.51813 102.28734 131.76215 102.296108 133.00615 102.54827 134.25016 101.75943 135.49417 101.964618 136.73818 102.04289 137.98218 101.91474 139.2262 102.73319 140.4702 103.01803 141.7142 102.87944 142.95822 102.64987 144.20223 103.29221 145.44623 102.99421 146.69025 102.73881 147.93425 103.349109 149.17826 103.17497 150.42226 102.66963 151.66628 102.404438 152.91028 102.66769 154.15428 102.38946 155.3983 102.603137 156.6423 102.39204 157.8863 102.97866 159.13033 102.63139 160.37433 103.36699 161.61833 102.88064 162.86235 102.598949 164.10636 102.55689 165.35036 102.760639V112.85083L164.10636 112.39996 162.86235 112.482959 161.61833 112.90988 160.37433 113.71488 159.13033 112.499828 157.8863 113.08124 156.6423 112.162998 155.3983 112.498348 154.15428 112.158809 152.91028 112.55905 151.66628 112.10566 150.42226 112.63298 149.17826 113.43488 147.93425 113.70836 146.69025 112.728427 145.44623 113.10111 144.20223 113.61317 142.95822 112.68627 141.7142 113.09555 140.4702 113.21353 139.2262 112.693889 137.98218 111.55893 136.73818 111.748 135.49417 111.73863 134.25016 111.21568 133.00615 112.46969 131.76215 112.09599 130.51813 112.17688 129.27413 111.46938 128.03012 111.50333 126.78611 112.56748 125.5421 112.227809 124.298099 111.34372 123.054088 112.67171 121.810077 113.22171 120.56607 112.49383 119.32206 112.28351 118.07806 112.56988 116.834049 112.295528 115.590038 113.21112 114.34603 113.00048 113.10202 111.69538 111.85801 112.496059 110.614009 111.82451 109.369998 111.56871 108.125988 111.84373 106.88198 111.838748 105.63797 111.54893 104.39397 111.260189 103.149959 110.16121 101.905948 111.8003 100.66194 111.92979 99.41793 111.23886 98.17392 110.98696 96.92992 111.32862 95.685909 112.06808 94.4419 110.66127 93.19789 110.37574 91.95388 111.597988 90.70988 111.75785 89.465869 112.21846 88.221858 111.72328 86.97785 112.03072 85.73384 111.821628 84.48984 111.7994 83.24583 113.19025 82.001819 112.19865 80.75781 112.04758 79.5138 113.11858 78.26979 112.83822 77.02579 112.133319 75.78178 112.19741 74.537769 112.46274 73.29376 112.394298 72.04975 111.272098 70.80575 109.745 69.56174 105.60393 68.317729 102.812198 67.07372 96.95566 65.82971 81.9934 64.5857 82.5611 63.341699 82.56878 62.097688 82.67379 60.85368 82.993289 59.609674 82.95576 58.365667 83.06331 57.121656 83.6409 55.877649 83.87737 54.63364 83.54656 53.38963 83.61529 52.145624 84.118618 50.901617 84.433788 49.657609 84.492259 48.413599 84.32901 47.16959 84.09334 45.925584 83.31222Z" fill="#1f77b4" fill-opacity=".15"/>
</g>
<g clip-path="url(#clip_7)">
<path transform="matrix(1,0,0,-1,0,140.00176)" d="M45.925584 81.85007 47.16959 81.8405 48.413599 81.847179 49.657609 81.86136 50.901617 81.84411 52.145624 81.84895 53.38963 81.8357 54.63364 81.845897 55.877649 81.86109 57.121656 81.850788 58.365667 81.83083 59.609674 81.84232 60.85368 81.855098 62.097688 81.84169 63.341699 81.84494 64.5857 81.855739 65.82971 81.834697 67.07372 80.95347 68.317729 81.041217 69.56174 80.72449 70.80575 80.8339 72.04975 81.24499 73.29376 81.23413 74.537769 80.86714 75.78178 80.98912 77.02579 81.159229 78.26979 80.944828 79.5138 80.922428 80.75781 80.881999 82.001819 80.80427 83.24583 80.795688 84.48984 80.77775 85.73384 81.15082 86.97785 81.759838 88.221858 81.81221 89.465869 81.82016 90.70988 81.82221 91.95388 81.82259 93.19789 81.82371 94.4419 81.82497 95.685909 81.8269 96.92992 81.82982 98.17392 81.8277 99.41793 81.82898 100.66194 81.82864 101.905948 81.207958 103.149959 80.74262 104.39397 81.68572 105.63797 81.82883 106.88198 81.82862 108.125988 81.82888 109.369998 81.82882 110.614009 81.82965 111.85801 81.82847 113.10202 81.82902 114.34603 81.82828 115.590038 81.82818 116.834049 81.827228 118.07806 81.827678 119.32206 81.827808 120.56607 81.82859 121.810077 81.833408 123.054088 81.8283 124.298099 81.828517 125.5421 81.82753 126.78611 81.828189 128.03012 81.82747 129.27413 80.99158 130.51813 80.7223 131.76215 81.826419 133.00615 80.72212 134.25016 80.72232 135.49417 81.81478 136.73818 81.824199 137.98218 81.82172 139.2262 81.80814 140.4702 81.82434 141.7142 81.824748 142.95822 81.82436 144.20223 81.8271 145.44623 81.82734 146.69025 81.82714 147.93425 81.82768 149.17826 81.74918 150.42226 80.7503 151.66628 81.6717 152.91028 81.81623 154.15428 81.82479 155.3983 81.81974 156.6423 81.82827 157.8863 81.82755 159.13033 81.82676 160.37433 81.82707 161.61833 81.82689 162.86235 81.820987 164.10636 81.82274 165.35036 81.8209V85.29282L164.10636 85.30044 162.86235 85.293239 161.61833 85.317409 160.37433 85.31827 159.13033 85.31698 157.8863 85.32027 156.6423 85.32324 155.3983 85.287837 154.15428 85.3085 152.91028 85.273548 151.66628 84.79181 150.42226 83.59156 149.17826 85.02803 147.93425 85.32054 146.69025 85.31854 145.44623 85.31938 144.20223 85.31841 142.95822 85.307079 141.7142 85.30869 140.4702 85.30705 139.2262 85.24208 137.98218 85.296 136.73818 85.30613 135.49417 85.268238 134.25016 84.29139 133.00615 84.29144 131.76215 85.31556 130.51813 84.29149 129.27413 83.7679 128.03012 85.319469 126.78611 85.32201 125.5421 85.31924 124.298099 85.32139 123.054088 85.32125 121.810077 85.32326 120.56607 85.32174 119.32206 85.31889 118.07806 85.31881 116.834049 85.31771 115.590038 85.3227 114.34603 85.32283 113.10202 85.32525 111.85801 85.32046 110.614009 85.32621 109.369998 85.32537 108.125988 85.32549 106.88198 85.3247 105.63797 85.32557 104.39397 84.83415 103.149959 83.589969 101.905948 83.97791 100.66194 85.324817 99.41793 85.326198 98.17392 85.32059 96.92992 85.32519 95.685909 85.31757 94.4419 85.30955 93.19789 85.304279 91.95388 85.29967 90.70988 85.29743 89.465869 85.28938 88.221858 85.256229 86.97785 85.04463 85.73384 83.08306 84.48984 81.02879 83.24583 81.02664 82.001819 81.72447 80.75781 81.64416 79.5138 82.31244 78.26979 82.92332 77.02579 83.120059 75.78178 82.79049 74.537769 82.756168 73.29376 83.378238 72.04975 83.00216 70.80575 81.23605 69.56174 80.84081 68.317729 83.03268 67.07372 82.89073 65.82971 81.847537 64.5857 81.87217 63.341699 81.868129 62.097688 81.85907 60.85368 81.87122 59.609674 81.85894 58.365667 81.84746 57.121656 81.86669 55.877649 81.86545 54.63364 81.861148 53.38963 81.85332 52.145624 81.860408 50.901617 81.860347 49.657609 81.87136 48.413599 81.85923 47.16959 81.85442 45.925584 81.874179Z" fill="#ff7f0e" fill-opacity=".15"/>
</g>
<g clip-path="url(#clip_8)">
<path transform="matrix(1,0,0,-1,0,140.00176)" d="M45.925584 84.60018 47.16959 84.640148 48.413599 84.02403 49.657609 84.07088 50.901617 85.22082 52.145624 85.82702 53.38963 87.25611 54.63364 84.92255 55.877649 85.60436 57.121656 86.79585 58.365667 87.69612 59.609674 87.76028 60.85368 87.7118 62.097688 87.67119 63.341699 87.78134 64.5857 87.76655 65.82971 87.76285 67.07372 87.7765 68.317729 87.79664 69.56174 87.78825 70.80575 87.780239 72.04975 87.80622 73.29376 87.793498 74.537769 87.51229 75.78178 87.659229 77.02579 87.78427 78.26979 87.25238 79.5138 85.16648 80.75781 85.28249 82.001819 85.57436 83.24583 86.444957 84.48984 87.76151 85.73384 87.75011 86.97785 87.78936 88.221858 87.822078 89.465869 87.87647 90.70988 87.90907 91.95388 87.942348 93.19789 87.97481 94.4419 87.96205 95.685909 88.001918 96.92992 88.89046 98.17392 89.3023 99.41793 90.19106 100.66194 90.543277 101.905948 91.23693 103.149959 91.72533 104.39397 91.75561 105.63797 91.77285 106.88198 91.6796 108.125988 91.02565 109.369998 91.58923 110.614009 91.638179 111.85801 91.68872 113.10202 91.83748 114.34603 91.709018 115.590038 91.84274 116.834049 91.813999 118.07806 91.68907 119.32206 91.79781 120.56607 91.80834 121.810077 91.81439 123.054088 91.70334 124.298099 91.8851 125.5421 90.988307 126.78611 91.75206 128.03012 91.94321 129.27413 92.048229 130.51813 91.96809 131.76215 92.02981 133.00615 91.76728 134.25016 91.922748 135.49417 91.97844 136.73818 92.07364 137.98218 92.01935 139.2262 91.91908 140.4702 91.949108 141.7142 91.95889 142.95822 92.04485 144.20223 91.95456 145.44623 91.776378 146.69025 91.8853 147.93425 91.87237 149.17826 91.73183 150.42226 91.358867 151.66628 91.677608 152.91028 91.95785 154.15428 91.804218 155.3983 91.98165 156.6423 92.04258 157.8863 91.679279 159.13033 91.80505 160.37433 91.95299 161.61833 91.76757 162.86235 91.98471 164.10636 91.60267 165.35036 91.058788V104.577739L164.10636 104.58386 162.86235 105.18691 161.61833 104.28998 160.37433 105.14763 159.13033 104.46493 157.8863 104.05874 156.6423 105.4307 155.3983 105.153789 154.15428 104.401 152.91028 105.07494 151.66628 104.368679 150.42226 104.13205 149.17826 104.31127 147.93425 104.71244 146.69025 104.90811 145.44623 104.42684 144.20223 105.26003 142.95822 105.40974 141.7142 105.1144 140.4702 105.028858 139.2262 105.04608 137.98218 105.295818 136.73818 105.52764 135.49417 105.2832 134.25016 104.98167 133.00615 104.34076 131.76215 105.39446 130.51813 105.187198 129.27413 105.423137 128.03012 105.00178 126.78611 104.39229 125.5421 104.33946 124.298099 104.72765 123.054088 104.016529 121.810077 104.455158 120.56607 104.441959 119.32206 104.45571 118.07806 104.09309 116.834049 104.56341 115.590038 104.65504 114.34603 104.07522 113.10202 104.641239 111.85801 103.96857 110.614009 103.73785 109.369998 103.54916 108.125988 103.98713 106.88198 103.99486 105.63797 104.41606 104.39397 104.66154 103.149959 104.17307 101.905948 102.11237 100.66194 99.34502 99.41793 100.25108 98.17392 98.951389 96.92992 98.980518 95.685909 97.99412 94.4419 98.21635 93.19789 97.82299 91.95388 98.18487 90.70988 97.84588 89.465869 97.97563 88.221858 97.78913 86.97785 96.79093 85.73384 96.33156 84.48984 94.96452 83.24583 91.259929 82.001819 88.42897 80.75781 88.08475 79.5138 88.00841 78.26979 87.91455 77.02579 87.870998 75.78178 87.808238 74.537769 87.894039 73.29376 87.93754 72.04975 87.93197 70.80575 87.87885 69.56174 87.839138 68.317729 87.856708 67.07372 87.8829 65.82971 87.86723 64.5857 87.872898 63.341699 87.83905 62.097688 87.7952 60.85368 87.797718 59.609674 87.80284 58.365667 87.76808 57.121656 87.74123 55.877649 87.40903 54.63364 87.66949 53.38963 87.68257 52.145624 87.295688 50.901617 87.57362 49.657609 86.91709 48.413599 86.43081 47.16959 86.50096 45.925584 86.401729Z" fill="#2ca02c" fill-opacity=".15"/>
</g>
<g clip-path="url(#clip_9)">
<path transform="matrix(1,0,0,-1,0,140.00176)" d="M45.925584 84.34161 47.16959 87.405918 48.413599 87.04524 49.657609 87.08511 50.901617 87.77127 52.145624 87.807689 53.38963 87.82542 54.63364 87.83475 55.877649 87.83701 57.121656 87.83744 58.365667 87.84052 59.609674 87.8408 60.85368 87.84762 62.097688 87.84632 63.341699 87.850139 64.5857 87.85128 65.82971 87.8506 67.07372 87.85043 68.317729 87.84557 69.56174 87.81281 70.80575 87.843349 72.04975 87.81745 73.29376 87.84386 74.537769 87.79628 75.78178 87.845119 77.02579 87.83179 78.26979 87.839778 79.5138 87.83775 80.75781 87.84127 82.001819 87.833988 83.24583 87.833629 84.48984 87.83894 85.73384 87.83367 86.97785 87.83196 88.221858 87.84071 89.465869 87.83119 90.70988 87.83675 91.95388 87.83958 93.19789 87.80129 94.4419 87.81476 95.685909 87.83188 96.92992 87.84152 98.17392 87.846408 99.41793 87.84295 100.66194 87.8421 101.905948 87.84083 103.149959 87.84603 104.39397 87.845668 105.63797 87.8491 106.88198 87.85249 108.125988 87.84434 109.369998 87.85633 110.614009 87.85684 111.85801 87.85961 113.10202 87.85695 114.34603 87.86003 115.590038 87.84334 116.834049 87.85284 118.07806 87.85892 119.32206 87.857158 120.56607 87.84995 121.810077 87.85365 123.054088 87.751918 124.298099 87.845958 125.5421 87.84733 126.78611 87.84023 128.03012 87.83978 129.27413 87.824138 130.51813 87.84725 131.76215 87.742938 133.00615 87.84185 134.25016 87.83666 135.49417 87.82943 136.73818 87.823299 137.98218 87.830287 139.2262 87.74401 140.4702 87.78503 141.7142 87.8069 142.95822 87.820369 144.20223 87.829509 145.44623 87.82555 146.69025 87.8106 147.93425 87.81535 149.17826 87.82486 150.42226 87.81326 151.66628 87.794399 152.91028 87.82087 154.15428 87.80772 155.3983 87.82442 156.6423 87.79242 157.8863 87.8166 159.13033 87.80086 160.37433 87.77164 161.61833 87.727519 162.86235 87.801349 164.10636 87.786449 165.35036 87.84139V87.85628L164.10636 87.85784 162.86235 87.85597 161.61833 87.829448 160.37433 87.85291 159.13033 87.85304 157.8863 87.85368 156.6423 87.85292 155.3983 87.85341 154.15428 87.8541 152.91028 87.8562 151.66628 87.85712 150.42226 87.85311 149.17826 87.85434 147.93425 87.85399 146.69025 87.85262 145.44623 87.854099 144.20223 87.85536 142.95822 87.85308 141.7142 87.85124 140.4702 87.852 139.2262 87.84918 137.98218 87.85045 136.73818 87.8517 135.49417 87.852 134.25016 87.85076 133.00615 87.853908 131.76215 87.85241 130.51813 87.85354 129.27413 87.85467 128.03012 87.85385 126.78611 87.85376 125.5421 87.85491 124.298099 87.85591 123.054088 87.8546 121.810077 87.85754 120.56607 87.85863 119.32206 87.85892 118.07806 87.859828 116.834049 87.85824 115.590038 87.85929 114.34603 87.86042 113.10202 87.85939 111.85801 87.860469 110.614009 87.85995 109.369998 87.860408 108.125988 87.8569 106.88198 87.85952 105.63797 87.858539 104.39397 87.85517 103.149959 87.85939 101.905948 87.85517 100.66194 87.85784 99.41793 87.85995 98.17392 87.86008 96.92992 87.86018 95.685909 87.8596 94.4419 87.847568 93.19789 87.848728 91.95388 87.85891 90.70988 87.85724 89.465869 87.85888 88.221858 87.85865 86.97785 87.85788 85.73384 87.858577 84.48984 87.856967 83.24583 87.85728 82.001819 87.85852 80.75781 87.86004 79.5138 87.85721 78.26979 87.85957 77.02579 87.85143 75.78178 87.85526 74.537769 87.84624 73.29376 87.8545 72.04975 87.853038 70.80575 87.85495 69.56174 87.85331 68.317729 87.854969 67.07372 87.85805 65.82971 87.858318 64.5857 87.85804 63.341699 87.85784 62.097688 87.85589 60.85368 87.8576 59.609674 87.85558 58.365667 87.85673 57.121656 87.85462 55.877649 87.85523 54.63364 87.853298 53.38963 87.84593 52.145624 87.83683 50.901617 87.820858 49.657609 87.79765 48.413599 87.77368 47.16959 87.648189 45.925584 86.72751Z" fill="#d62728" fill-opacity=".15"/>
</g>
<g clip-path="url(#clip_10)">
<path transform="matrix(1,0,0,-1,0,140.00176)" stroke-width="1" stroke-linecap="round" stroke-linejoin="round" fill="none" stroke="#1f77b4" d="M45.925584 82.57414 47.16959 82.926548 48.413599 83.226749 49.657609 83.415348 50.901617 83.4093 52.145624 83.1885 53.38963 82.68375 54.63364 82.67064 55.877649 82.973117 57.121656 82.83322 58.365667 82.5672 59.609674 82.55966 60.85368 82.54368 62.097688 82.32618 63.341699 82.24345 64.5857 82.29169 65.82971 81.89275 67.07372 94.04144 68.317729 98.60092 69.56174 101.51609 70.80575 105.225368 72.04975 106.56671 73.29376 107.47951 74.537769 107.5314 75.78178 107.31696 77.02579 107.23803 78.26979 107.800258 79.5138 108.04065 80.75781 107.18807 82.001819 107.29423 83.24583 108.11744 84.48984 106.994899 85.73384 106.9998 86.97785 107.183139 88.221858 106.91107 89.465869 107.296527 90.70988 106.92994 91.95388 106.83379 93.19789 105.81023 94.4419 106.08315 95.685909 107.21069 96.92992 106.58435 98.17392 106.29748 99.41793 106.551868 100.66194 107.0999 101.905948 107.00026 103.149959 105.67722 104.39397 106.549327 105.63797 106.75497 106.88198 106.97181 108.125988 107.03748 109.369998 106.77397 110.614009 107.0153 111.85801 107.56538 113.10202 106.900409 114.34603 107.96204 115.590038 108.12811 116.834049 107.39093 118.07806 107.61173 119.32206 107.357608 120.56607 106.325618 121.810077 106.8466 123.054088 106.45266 124.298099 103.50731 125.5421 106.11052 126.78611 107.58433 128.03012 106.751659 129.27413 106.69824 130.51813 107.23211 131.76215 107.19605 133.00615 107.50898 134.25016 106.48756 135.49417 106.85162 136.73818 106.89545 137.98218 106.73683 139.2262 107.71354 140.4702 108.11578 141.7142 107.987499 142.95822 107.668079 144.20223 108.45269 145.44623 108.04766 146.69025 107.73362 147.93425 108.52873 149.17826 108.30493 150.42226 107.651309 151.66628 107.25505 152.91028 107.613368 154.15428 107.27413 155.3983 107.55074 156.6423 107.27752 157.8863 108.029949 159.13033 107.56561 160.37433 108.54094 161.61833 107.89526 162.86235 107.540958 164.10636 107.47843 165.35036 107.80573"/>
</g>
<g clip-path="url(#clip_11)">
<path transform="matrix(1,0,0,-1,0,140.00176)" stroke-width="1" stroke-linecap="round" stroke-linejoin="round" fill="none" stroke="#ff7f0e" d="M45.925584 81.86212 47.16959 81.84746 48.413599 81.8532 49.657609 81.86636 50.901617 81.85223 52.145624 81.854679 53.38963 81.84451 54.63364 81.85352 55.877649 81.863269 57.121656 81.858737 58.365667 81.83914 59.609674 81.85063 60.85368 81.86316 62.097688 81.85038 63.341699 81.85654 64.5857 81.86395 65.82971 81.84112 67.07372 81.9221 68.317729 82.03694 69.56174 80.78265 70.80575 81.03498 72.04975 82.12357 73.29376 82.30618 74.537769 81.81165 75.78178 81.88981 77.02579 82.13964 78.26979 81.934078 79.5138 81.61743 80.75781 81.26308 82.001819 81.264369 83.24583 80.91116 84.48984 80.90327 85.73384 82.11694 86.97785 83.40223 88.221858 83.53422 89.465869 83.55477 90.70988 83.55982 91.95388 83.56113 93.19789 83.56399 94.4419 83.56726 95.685909 83.572238 96.92992 83.5775 98.17392 83.57414 99.41793 83.57758 100.66194 83.57673 101.905948 82.59293 103.149959 82.16629 104.39397 83.25993 105.63797 83.577198 106.88198 83.57666 108.125988 83.57719 109.369998 83.577098 110.614009 83.577938 111.85801 83.57446 113.10202 83.57713 114.34603 83.575557 115.590038 83.57544 116.834049 83.572467 118.07806 83.57324 119.32206 83.57335 120.56607 83.575168 121.810077 83.57833 123.054088 83.574779 124.298099 83.57495 125.5421 83.57339 126.78611 83.575099 128.03012 83.57346 129.27413 82.37974 130.51813 82.50689 131.76215 83.57099 133.00615 82.50678 134.25016 82.50685 135.49417 83.54151 136.73818 83.56516 137.98218 83.55886 139.2262 83.52511 140.4702 83.5657 141.7142 83.56672 142.95822 83.56572 144.20223 83.572757 145.44623 83.57336 146.69025 83.572849 147.93425 83.57411 149.17826 83.38861 150.42226 82.17093 151.66628 83.23176 152.91028 83.54488 154.15428 83.56664 155.3983 83.55379 156.6423 83.57576 157.8863 83.573909 159.13033 83.57187 160.37433 83.57267 161.61833 83.57214 162.86235 83.55711 164.10636 83.56159 165.35036 83.55686"/>
</g>
<g clip-path="url(#clip_12)">
<path transform="matrix(1,0,0,-1,0,140.00176)" stroke-width="1" stroke-linecap="round" stroke-linejoin="round" fill="none" stroke="#2ca02c" d="M45.925584 85.50095 47.16959 85.57055 48.413599 85.22742 49.657609 85.49399 50.901617 86.39722 52.145624 86.561359 53.38963 87.469348 54.63364 86.29602 55.877649 86.50669 57.121656 87.26854 58.365667 87.7321 59.609674 87.78156 60.85368 87.75475 62.097688 87.73319 63.341699 87.810199 64.5857 87.819728 65.82971 87.81504 67.07372 87.8297 68.317729 87.826679 69.56174 87.81369 70.80575 87.829547 72.04975 87.869098 73.29376 87.86552 74.537769 87.70316 75.78178 87.733737 77.02579 87.82764 78.26979 87.583469 79.5138 86.58745 80.75781 86.68362 82.001819 87.00167 83.24583 88.85244 84.48984 91.363018 85.73384 92.04083 86.97785 92.290149 88.221858 92.8056 89.465869 92.926059 90.70988 92.87748 91.95388 93.06361 93.19789 92.898899 94.4419 93.089199 95.685909 92.99802 96.92992 93.935489 98.17392 94.12685 99.41793 95.22108 100.66194 94.944149 101.905948 96.67465 103.149959 97.949199 104.39397 98.20857 105.63797 98.09446 106.88198 97.837238 108.125988 97.50639 109.369998 97.56919 110.614009 97.68801 111.85801 97.82864 113.10202 98.23936 114.34603 97.89211 115.590038 98.24889 116.834049 98.188709 118.07806 97.89108 119.32206 98.12676 120.56607 98.125148 121.810077 98.13477 123.054088 97.85993 124.298099 98.30638 125.5421 97.66388 126.78611 98.072177 128.03012 98.472499 129.27413 98.73568 130.51813 98.57764 131.76215 98.712139 133.00615 98.05402 134.25016 98.45221 135.49417 98.63082 136.73818 98.80064 137.98218 98.65758 139.2262 98.48258 140.4702 98.488979 141.7142 98.53665 142.95822 98.727298 144.20223 98.60729 145.44623 98.10161 146.69025 98.396709 147.93425 98.292407 149.17826 98.021549 150.42226 97.74545 151.66628 98.02314 152.91028 98.516399 154.15428 98.10261 155.3983 98.56772 156.6423 98.73664 157.8863 97.869 159.13033 98.13499 160.37433 98.55031 161.61833 98.02877 162.86235 98.585819 164.10636 98.09327 165.35036 97.81826"/>
</g>
<g clip-path="url(#clip_13)">
<path transform="matrix(1,0,0,-1,0,140.00176)" stroke-width="1" stroke-linecap="round" stroke-linejoin="round" fill="none" stroke="#d62728" d="M45.925584 85.53456 47.16959 87.52705 48.413599 87.40946 49.657609 87.44138 50.901617 87.79607 52.145624 87.82226 53.38963 87.83567 54.63364 87.844028 55.877649 87.84612 57.121656 87.84603 58.365667 87.848628 59.609674 87.84819 60.85368 87.85261 62.097688 87.851108 63.341699 87.85399 64.5857 87.85466 65.82971 87.85446 67.07372 87.85424 68.317729 87.85027 69.56174 87.83306 70.80575 87.849147 72.04975 87.83524 73.29376 87.84918 74.537769 87.82126 75.78178 87.85019 77.02579 87.841609 78.26979 87.84968 79.5138 87.84748 80.75781 87.850658 82.001819 87.84625 83.24583 87.84545 84.48984 87.84795 85.73384 87.84612 86.97785 87.844928 88.221858 87.84968 89.465869 87.84503 90.70988 87.84699 91.95388 87.84924 93.19789 87.825008 94.4419 87.83116 95.685909 87.84574 96.92992 87.850849 98.17392 87.85324 99.41793 87.85145 100.66194 87.849979 101.905948 87.848 103.149959 87.85271 104.39397 87.85042 105.63797 87.85381 106.88198 87.85601 108.125988 87.850627 109.369998 87.85837 110.614009 87.85839 111.85801 87.86004 113.10202 87.85817 114.34603 87.86023 115.590038 87.85131 116.834049 87.85554 118.07806 87.85937 119.32206 87.85804 120.56607 87.85429 121.810077 87.8556 123.054088 87.80326 124.298099 87.85093 125.5421 87.85112 126.78611 87.84699 128.03012 87.84682 129.27413 87.8394 130.51813 87.850399 131.76215 87.79767 133.00615 87.84788 134.25016 87.84371 135.49417 87.84071 136.73818 87.8375 137.98218 87.84036 139.2262 87.79659 140.4702 87.81851 141.7142 87.82907 142.95822 87.83672 144.20223 87.84244 145.44623 87.83982 146.69025 87.83161 147.93425 87.83467 149.17826 87.8396 150.42226 87.83318 151.66628 87.82575 152.91028 87.83854 154.15428 87.83091 155.3983 87.83891 156.6423 87.82267 157.8863 87.83514 159.13033 87.82695 160.37433 87.81228 161.61833 87.77848 162.86235 87.82866 164.10636 87.82214 165.35036 87.84884"/>
</g>
<g clip-path="url(#clip_14)">
<path transform="matrix(1,0,0,-1,0,140.00176)" stroke-width="1.5" stroke-linecap="butt" stroke-dasharray="5.55,2.4" stroke-linejoin="round" fill="none" stroke="#000000" d="M65.82971 79.07248V115.36452"/>
</g>
<path transform="matrix(1,0,0,-1,0,140.00176)" stroke-width="1.25" stroke-linecap="square" stroke-miterlimit="10" stroke-linejoin="miter" fill="none" stroke="#333333" d="M39.954347 79.07248V115.36452"/>
<path transform="matrix(1,0,0,-1,0,140.00176)" stroke-width="1.25" stroke-linecap="square" stroke-miterlimit="10" stroke-linejoin="miter" fill="none" stroke="#333333" d="M171.3216 79.07248V115.36452"/>
<path transform="matrix(1,0,0,-1,0,140.00176)" stroke-width="1.25" stroke-linecap="square" stroke-miterlimit="10" stroke-linejoin="miter" fill="none" stroke="#333333" d="M39.954347 79.07248H171.3216"/>
<path transform="matrix(1,0,0,-1,0,140.00176)" stroke-width="1.25" stroke-linecap="square" stroke-miterlimit="10" stroke-linejoin="miter" fill="none" stroke="#333333" d="M39.954347 115.36452H171.3216"/>
<path transform="matrix(1,0,0,-1,0,140.00176)" d="M39.954347 28.838238H171.3216V65.13027H39.954347Z" fill="#ffffff"/>
<path transform="matrix(1,0,0,-1,0,140.00176)" d="M40.94955 28.838238V22.838238" fill="#333333"/>
<path transform="matrix(1,0,0,-1,0,140.00176)" stroke-width="1.25" stroke-linecap="butt" stroke-linejoin="round" fill="none" stroke="#333333" d="M40.94955 28.838238V22.838238"/>
<use data-text="0" xlink:href="#font_1_50" transform="matrix(6.973848,0,0,-6.973848,38.963933,125.39171)" fill="#333333"/>
<path transform="matrix(1,0,0,-1,0,140.00176)" d="M65.82971 28.838238V22.838238" fill="#333333"/>
<path transform="matrix(1,0,0,-1,0,140.00176)" stroke-width="1.25" stroke-linecap="butt" stroke-linejoin="round" fill="none" stroke="#333333" d="M65.82971 28.838238V22.838238"/>
<use data-text="1" xlink:href="#font_1_51" transform="matrix(6.973848,0,0,-6.973848,57.887239,125.39171)" fill="#333333"/>
<use data-text="0" xlink:href="#font_1_50" transform="matrix(6.973848,0,0,-6.973848,61.85536,125.39171)" fill="#333333"/>
<use data-text="0" xlink:href="#font_1_50" transform="matrix(6.973848,0,0,-6.973848,65.82348,125.39171)" fill="#333333"/>
<use data-text="0" xlink:href="#font_1_50" transform="matrix(6.973848,0,0,-6.973848,69.791599,125.39171)" fill="#333333"/>
<path transform="matrix(1,0,0,-1,0,140.00176)" d="M90.70988 28.838238V22.838238" fill="#333333"/>
<path transform="matrix(1,0,0,-1,0,140.00176)" stroke-width="1.25" stroke-linecap="butt" stroke-linejoin="round" fill="none" stroke="#333333" d="M90.70988 28.838238V22.838238"/>
<use data-text="2" xlink:href="#font_1_52" transform="matrix(6.973848,0,0,-6.973848,82.7674,125.39171)" fill="#333333"/>
<use data-text="0" xlink:href="#font_1_50" transform="matrix(6.973848,0,0,-6.973848,86.73552,125.39171)" fill="#333333"/>
<use data-text="0" xlink:href="#font_1_50" transform="matrix(6.973848,0,0,-6.973848,90.703639,125.39171)" fill="#333333"/>
<use data-text="0" xlink:href="#font_1_50" transform="matrix(6.973848,0,0,-6.973848,94.67175,125.39171)" fill="#333333"/>
<path transform="matrix(1,0,0,-1,0,140.00176)" d="M115.590038 28.838238V22.838238" fill="#333333"/>
<path transform="matrix(1,0,0,-1,0,140.00176)" stroke-width="1.25" stroke-linecap="butt" stroke-linejoin="round" fill="none" stroke="#333333" d="M115.590038 28.838238V22.838238"/>
<use data-text="3" xlink:href="#font_1_53" transform="matrix(6.973848,0,0,-6.973848,107.64756,125.39171)" fill="#333333"/>
<use data-text="0" xlink:href="#font_1_50" transform="matrix(6.973848,0,0,-6.973848,111.61568,125.39171)" fill="#333333"/>
<use data-text="0" xlink:href="#font_1_50" transform="matrix(6.973848,0,0,-6.973848,115.58379,125.39171)" fill="#333333"/>
<use data-text="0" xlink:href="#font_1_50" transform="matrix(6.973848,0,0,-6.973848,119.55191,125.39171)" fill="#333333"/>
<path transform="matrix(1,0,0,-1,0,140.00176)" d="M140.4702 28.838238V22.838238" fill="#333333"/>
<path transform="matrix(1,0,0,-1,0,140.00176)" stroke-width="1.25" stroke-linecap="butt" stroke-linejoin="round" fill="none" stroke="#333333" d="M140.4702 28.838238V22.838238"/>
<use data-text="4" xlink:href="#font_1_54" transform="matrix(6.973848,0,0,-6.973848,132.52773,125.39171)" fill="#333333"/>
<use data-text="0" xlink:href="#font_1_50" transform="matrix(6.973848,0,0,-6.973848,136.49585,125.39171)" fill="#333333"/>
<use data-text="0" xlink:href="#font_1_50" transform="matrix(6.973848,0,0,-6.973848,140.46398,125.39171)" fill="#333333"/>
<use data-text="0" xlink:href="#font_1_50" transform="matrix(6.973848,0,0,-6.973848,144.4321,125.39171)" fill="#333333"/>
<path transform="matrix(1,0,0,-1,0,140.00176)" d="M165.35036 28.838238V22.838238" fill="#333333"/>
<path transform="matrix(1,0,0,-1,0,140.00176)" stroke-width="1.25" stroke-linecap="butt" stroke-linejoin="round" fill="none" stroke="#333333" d="M165.35036 28.838238V22.838238"/>
<use data-text="5" xlink:href="#font_1_55" transform="matrix(6.973848,0,0,-6.973848,157.40789,125.39171)" fill="#333333"/>
<use data-text="0" xlink:href="#font_1_50" transform="matrix(6.973848,0,0,-6.973848,161.376,125.39171)" fill="#333333"/>
<use data-text="0" xlink:href="#font_1_50" transform="matrix(6.973848,0,0,-6.973848,165.34413,125.39171)" fill="#333333"/>
<use data-text="0" xlink:href="#font_1_50" transform="matrix(6.973848,0,0,-6.973848,169.31226,125.39171)" fill="#333333"/>
<use data-text="E" xlink:href="#font_15_137" transform="matrix(8.966376,0,0,-8.966376,89.44936,136.9806)" fill="#333333"/>
<use data-text="p" xlink:href="#font_15_181" transform="matrix(8.966376,0,0,-8.966376,94.91885,136.9806)" fill="#333333"/>
<use data-text="i" xlink:href="#font_15_174" transform="matrix(8.966376,0,0,-8.966376,99.40204,136.9806)" fill="#333333"/>
<use data-text="s" xlink:href="#font_15_184" transform="matrix(8.966376,0,0,-8.966376,101.88573,136.9806)" fill="#333333"/>
<use data-text="o" xlink:href="#font_15_180" transform="matrix(8.966376,0,0,-8.966376,105.36468,136.9806)" fill="#333333"/>
<use data-text="d" xlink:href="#font_15_169" transform="matrix(8.966376,0,0,-8.966376,109.84786,136.9806)" fill="#333333"/>
<use data-text="e" xlink:href="#font_15_170" transform="matrix(8.966376,0,0,-8.966376,114.33105,136.9806)" fill="#333333"/>
<use data-text="s" xlink:href="#font_15_184" transform="matrix(8.966376,0,0,-8.966376,118.303157,136.9806)" fill="#333333"/>
<g clip-path="url(#clip_16)">
<path transform="matrix(1,0,0,-1,0,140.00176)" stroke-width=".5" stroke-linecap="round" stroke-linejoin="round" fill="none" stroke="#e3e3e3" d="M39.954347 30.487877H171.3216"/>
</g>
<path transform="matrix(1,0,0,-1,0,140.00176)" d="M39.954347 30.487877H33.954347" fill="#333333"/>
<path transform="matrix(1,0,0,-1,0,140.00176)" stroke-width="1.25" stroke-linecap="butt" stroke-linejoin="round" fill="none" stroke="#333333" d="M39.954347 30.487877H33.954347"/>
<use data-text="0" xlink:href="#font_1_50" transform="matrix(6.973848,0,0,-6.973848,26.483107,111.877979)" fill="#333333"/>
<g clip-path="url(#clip_17)">
<path transform="matrix(1,0,0,-1,0,140.00176)" stroke-width=".5" stroke-linecap="round" stroke-linejoin="round" fill="none" stroke="#e3e3e3" d="M39.954347 64.7083H171.3216"/>
</g>
<path transform="matrix(1,0,0,-1,0,140.00176)" d="M39.954347 64.7083H33.954347" fill="#333333"/>
<path transform="matrix(1,0,0,-1,0,140.00176)" stroke-width="1.25" stroke-linecap="butt" stroke-linejoin="round" fill="none" stroke="#333333" d="M39.954347 64.7083H33.954347"/>
<use data-text="1" xlink:href="#font_1_51" transform="matrix(6.973848,0,0,-6.973848,14.569393,77.657558)" fill="#333333"/>
<use data-text="0" xlink:href="#font_1_50" transform="matrix(6.973848,0,0,-6.973848,18.537512,77.657558)" fill="#333333"/>
<use data-text="0" xlink:href="#font_1_50" transform="matrix(6.973848,0,0,-6.973848,22.50563,77.657558)" fill="#333333"/>
<use data-text="0" xlink:href="#font_1_50" transform="matrix(6.973848,0,0,-6.973848,26.47375,77.657558)" fill="#333333"/>
<use data-text="&#x02c6;" xlink:href="#font_3_96" transform="matrix(0,-8.966376,-8.966376,-0,6.361753,95.02939)" fill="#333333"/>
<use data-text="J" xlink:href="#font_4_75" transform="matrix(0,-8.966376,-8.966376,-0,8.628247,97.2274)" fill="#333333"/>
<use data-text="c" xlink:href="#font_5_100" transform="matrix(0,-5.977584,-5.977584,-0,9.624496,92.149929)" fill="#333333"/>
<g clip-path="url(#clip_18)">
<path transform="matrix(1,0,0,-1,0,140.00176)" d="M45.925584 30.535014 47.16959 30.49096 48.413599 30.524237 49.657609 30.489628 50.901617 30.494883 52.145624 30.487877H53.38963L54.63364 30.504767 55.877649 30.487877H57.121656 58.365667 59.609674 60.85368L62.097688 30.498236 63.341699 30.487877H64.5857L65.82971 30.497414 67.07372 30.49617 68.317729 30.504918 69.56174 30.507769 70.80575 30.589339 72.04975 30.624892 73.29376 30.580222 74.537769 30.517979 75.78178 30.602345 77.02579 30.755137 78.26979 30.604403 79.5138 30.813513 80.75781 30.93169 82.001819 30.79603 83.24583 30.856905 84.48984 31.027335 85.73384 31.214152 86.97785 31.107758 88.221858 30.951516 89.465869 31.004582 90.70988 31.25593 91.95388 31.205494 93.19789 31.343777 94.4419 31.11979 95.685909 31.116559 96.92992 31.103556 98.17392 31.251326 99.41793 31.402659 100.66194 31.129933 101.905948 31.62656 103.149959 31.491606 104.39397 31.327704 105.63797 31.449294 106.88198 31.40531 108.125988 31.30548 109.369998 31.345448 110.614009 31.730048 111.85801 31.601853 113.10202 31.382512 114.34603 31.595385 115.590038 31.480347 116.834049 31.541134 118.07806 31.403149 119.32206 31.775216 120.56607 31.373866 121.810077 31.401619 123.054088 31.418345 124.298099 31.135949 125.5421 31.573126 126.78611 31.510628 128.03012 31.561709 129.27413 31.49819 130.51813 31.588946 131.76215 31.589957 133.00615 31.596123 134.25016 31.63434 135.49417 31.504805 136.73818 31.623904 137.98218 31.497496 139.2262 31.544108 140.4702 31.575303 141.7142 31.708859 142.95822 31.599678 144.20223 31.658032 145.44623 31.608199 146.69025 31.650107 147.93425 31.550858 149.17826 31.596907 150.42226 31.757369 151.66628 31.831183 152.91028 31.67868 154.15428 31.622576 155.3983 31.579344 156.6423 32.141435 157.8863 31.658852 159.13033 31.633728 160.37433 31.59537 161.61833 31.586167 162.86235 31.746415 164.10636 31.582697 165.35036 31.607575V32.414346L164.10636 32.362844 162.86235 32.44496 161.61833 32.353349 160.37433 32.36714 159.13033 32.42679 157.8863 32.46518 156.6423 32.413774 155.3983 32.316919 154.15428 32.498445 152.91028 32.529397 151.66628 32.692819 150.42226 32.647546 149.17826 32.339326 147.93425 32.269025 146.69025 32.45914 145.44623 32.400033 144.20223 32.31817 142.95822 32.351064 141.7142 32.5589 140.4702 32.30289 139.2262 32.26181 137.98218 32.183038 136.73818 32.28303 135.49417 32.199 134.25016 32.458208 133.00615 32.36365 131.76215 32.32629 130.51813 32.359056 129.27413 32.23381 128.03012 32.296773 126.78611 32.21699 125.5421 32.158056 124.298099 32.500787 123.054088 32.40181 121.810077 32.340856 120.56607 32.32891 119.32206 32.460786 118.07806 32.05591 116.834049 32.41645 115.590038 32.074804 114.34603 32.284727 113.10202 32.07244 111.85801 32.26402 110.614009 32.500478 109.369998 31.992884 108.125988 31.894326 106.88198 31.995165 105.63797 31.939682 104.39397 32.012544 103.149959 32.298437 101.905948 32.126798 100.66194 31.71973 99.41793 31.820418 98.17392 32.03198 96.92992 31.769379 95.685909 31.718594 94.4419 31.67211 93.19789 32.79723 91.95388 32.1134 90.70988 31.675314 89.465869 31.61156 88.221858 31.715 86.97785 31.703305 85.73384 31.761443 84.48984 31.541993 83.24583 31.211985 82.001819 31.273955 80.75781 31.33376 79.5138 31.32902 78.26979 30.98458 77.02579 31.061892 75.78178 30.881239 74.537769 30.553318 73.29376 30.867499 72.04975 30.72099 70.80575 30.85975 69.56174 30.756257 68.317729 30.626059 67.07372 30.810837 65.82971 30.561562 64.5857 30.634066 63.341699 30.492257 62.097688 30.549517 60.85368 30.49034 59.609674 30.489794 58.365667 30.650765 57.121656 30.577124 55.877649 30.504029 54.63364 30.559138 53.38963 30.491984 52.145624 30.487877 50.901617 30.587912 49.657609 30.50611 48.413599 30.66341 47.16959 30.52887 45.925584 33.063665Z" fill="#1f77b4" fill-opacity=".15"/>
</g>
<g clip-path="url(#clip_19)">
<path transform="matrix(1,0,0,-1,0,140.00176)" d="M45.925584 63.141977 47.16959 63.15315 48.413599 63.139478 49.657609 63.1594 50.901617 63.152494 52.145624 63.14202 53.38963 63.138784 54.63364 63.159624 55.877649 63.149316 57.121656 63.142557 58.365667 63.15106 59.609674 63.14837 60.85368 63.14171 62.097688 63.146169 63.341699 63.13782 64.5857 63.134199 65.82971 63.139028 67.07372 59.739049 68.317729 59.33001 69.56174 60.397394 70.80575 44.41403 72.04975 35.82405 73.29376 35.62543 74.537769 35.624956 75.78178 35.625486 77.02579 35.626848 78.26979 35.625169 79.5138 35.62511 80.75781 35.626218 82.001819 35.625326 83.24583 35.625059 84.48984 35.62511 85.73384 35.63186 86.97785 35.626058 88.221858 35.66429 89.465869 35.624956 90.70988 35.69181 91.95388 35.625646 93.19789 35.626058 94.4419 35.742326 95.685909 35.62511 96.92992 36.468034 98.17392 37.012186 99.41793 35.62543 100.66194 35.943754 101.905948 39.19284 103.149959 37.02646 104.39397 36.003816 105.63797 35.767576 106.88198 35.928476 108.125988 35.70165 109.369998 35.946809 110.614009 35.98342 111.85801 35.819116 113.10202 35.72233 114.34603 35.89716 115.590038 35.649206 116.834049 35.68668 118.07806 35.640115 119.32206 35.644227 120.56607 35.699304 121.810077 35.777734 123.054088 35.733907 124.298099 35.64301 125.5421 35.677316 126.78611 35.709283 128.03012 35.641424 129.27413 41.516359 130.51813 37.490259 131.76215 35.625219 133.00615 37.489248 134.25016 37.491426 135.49417 36.312334 136.73818 35.76249 137.98218 35.711866 139.2262 36.36103 140.4702 35.928396 141.7142 35.823747 142.95822 35.71463 144.20223 35.694864 145.44623 35.859975 146.69025 35.71146 147.93425 35.677686 149.17826 36.878339 150.42226 40.58193 151.66628 37.246496 152.91028 35.70421 154.15428 35.721776 155.3983 36.417356 156.6423 36.147256 157.8863 36.290506 159.13033 36.12436 160.37433 36.95038 161.61833 36.328699 162.86235 36.43173 164.10636 36.141706 165.35036 36.401086V52.1952L164.10636 52.07706 162.86235 52.196588 161.61833 52.160547 160.37433 52.42969 159.13033 52.07223 157.8863 52.14782 156.6423 52.08301 155.3983 52.193716 154.15428 51.89745 152.91028 51.890378 151.66628 52.64524 150.42226 55.41883 149.17826 52.438768 147.93425 51.87967 146.69025 51.892435 145.44623 51.956907 144.20223 51.886037 142.95822 51.893644 141.7142 51.941667 140.4702 51.985948 139.2262 52.183786 137.98218 51.892854 136.73818 51.914499 135.49417 52.164045 134.25016 56.618936 133.00615 56.617349 131.76215 51.857126 130.51813 56.621126 129.27413 56.96525 128.03012 51.864736 126.78611 51.89242 125.5421 51.878126 124.298099 51.863424 123.054088 51.901746 121.810077 51.92143 120.56607 51.88707 119.32206 51.866315 118.07806 51.863584 116.834049 51.882448 115.590038 51.86681 114.34603 51.973657 113.10202 51.896898 111.85801 51.938089 110.614009 52.01277 109.369998 51.995187 108.125988 51.889654 106.88198 51.984228 105.63797 51.917627 104.39397 52.018938 103.149959 52.511026 101.905948 53.90165 100.66194 51.99304 99.41793 51.858007 98.17392 52.466989 96.92992 52.22626 95.685909 51.85668 94.4419 51.90537 93.19789 51.856287 91.95388 51.85889 90.70988 51.883886 89.465869 51.85602 88.221858 51.872808 86.97785 51.856287 85.73384 51.859518 84.48984 51.85668 83.24583 51.85646 82.001819 51.857568 80.75781 51.85695 79.5138 51.85668 78.26979 51.856904 77.02579 51.85741 75.78178 51.858228 74.537769 51.85602 73.29376 51.858007 72.04975 51.941366 70.80575 56.553899 69.56174 63.00024 68.317729 63.37445 67.07372 63.480638 65.82971 63.15721 64.5857 63.151365 63.341699 63.160608 62.097688 63.15363 60.85368 63.156995 59.609674 63.163747 58.365667 63.160238 57.121656 63.156145 55.877649 63.1639 54.63364 63.16892 53.38963 63.148969 52.145624 63.16489 50.901617 63.163457 49.657609 63.172975 48.413599 63.151834 47.16959 63.161436 45.925584 63.155908Z" fill="#ff7f0e" fill-opacity=".15"/>
</g>
<g clip-path="url(#clip_20)">
<path transform="matrix(1,0,0,-1,0,140.00176)" d="M45.925584 30.487877H47.16959 48.413599 49.657609L50.901617 30.526223 52.145624 31.154816 53.38963 30.50546 54.63364 30.507273 55.877649 30.757739 57.121656 30.610362 58.365667 30.539614 59.609674 30.694268 60.85368 30.619368 62.097688 30.60277 63.341699 30.652064 64.5857 30.613127 65.82971 30.601552 67.07372 30.751914 68.317729 30.838706 69.56174 31.034815 70.80575 31.073409 72.04975 30.937293 73.29376 31.00818 74.537769 31.005665 75.78178 30.865046 77.02579 30.68535 78.26979 30.896933 79.5138 31.195818 80.75781 31.191233 82.001819 31.531704 83.24583 31.164196 84.48984 31.021714 85.73384 31.212246 86.97785 31.464123 88.221858 31.22978 89.465869 31.138756 90.70988 31.17144 91.95388 31.134165 93.19789 31.292426 94.4419 31.134966 95.685909 31.431927 96.92992 31.623826 98.17392 31.943278 99.41793 31.918736 100.66194 32.47147 101.905948 31.723303 103.149959 31.772242 104.39397 31.872265 105.63797 31.605607 106.88198 32.014814 108.125988 31.651152 109.369998 31.44187 110.614009 31.121195 111.85801 31.308882 113.10202 31.32856 114.34603 31.646267 115.590038 31.545098 116.834049 31.80125 118.07806 31.368834 119.32206 31.279175 120.56607 31.280127 121.810077 31.821625 123.054088 31.815478 124.298099 31.425738 125.5421 31.900826 126.78611 31.40585 128.03012 31.434149 129.27413 32.009054 130.51813 31.745903 131.76215 31.76606 133.00615 31.943646 134.25016 31.660155 135.49417 31.678879 136.73818 31.806242 137.98218 31.63757 139.2262 32.090967 140.4702 31.827437 141.7142 31.682784 142.95822 31.988932 144.20223 32.19807 145.44623 32.093149 146.69025 32.090993 147.93425 31.94861 149.17826 31.893853 150.42226 32.133146 151.66628 31.539589 152.91028 31.911076 154.15428 32.23788 155.3983 32.370637 156.6423 32.40865 157.8863 32.299726 159.13033 32.238664 160.37433 32.250608 161.61833 32.387128 162.86235 32.432867 164.10636 32.42325 165.35036 32.58812V34.74168L164.10636 33.04633 162.86235 33.3551 161.61833 33.035638 160.37433 32.796556 159.13033 32.86736 157.8863 32.707197 156.6423 33.15702 155.3983 32.914426 154.15428 32.53798 152.91028 32.21898 151.66628 32.201997 150.42226 32.711977 149.17826 32.342149 147.93425 32.39799 146.69025 32.463125 145.44623 32.448919 144.20223 33.11081 142.95822 32.328924 141.7142 32.154344 140.4702 32.30782 139.2262 32.835195 137.98218 32.17355 136.73818 32.233747 135.49417 32.09063 134.25016 32.150968 133.00615 32.646879 131.76215 32.203844 130.51813 32.21688 129.27413 33.203737 128.03012 31.989596 126.78611 32.189 125.5421 36.80053 124.298099 32.17212 123.054088 32.165376 121.810077 32.205495 120.56607 31.881627 119.32206 31.900647 118.07806 32.02288 116.834049 32.30882 115.590038 32.0388 114.34603 32.034543 113.10202 31.844143 111.85801 32.09625 110.614009 31.827845 109.369998 32.259744 108.125988 35.948579 106.88198 32.769536 105.63797 32.602197 104.39397 33.428678 103.149959 32.750665 101.905948 32.525564 100.66194 34.384447 99.41793 32.39638 98.17392 32.436449 96.92992 32.571386 95.685909 32.11501 94.4419 31.65091 93.19789 31.71821 91.95388 31.783392 90.70988 31.733523 89.465869 31.787835 88.221858 31.953326 86.97785 32.01027 85.73384 31.66671 84.48984 31.539402 83.24583 33.0614 82.001819 32.24848 80.75781 34.03333 79.5138 38.101247 78.26979 32.36228 77.02579 31.019433 75.78178 32.16968 74.537769 35.57293 73.29376 31.472722 72.04975 31.367306 70.80575 32.11134 69.56174 31.575854 68.317729 31.394715 67.07372 31.350649 65.82971 30.820982 64.5857 30.95724 63.341699 30.879702 62.097688 30.860283 60.85368 30.809739 59.609674 31.204068 58.365667 30.71565 57.121656 31.657553 55.877649 31.94765 54.63364 30.637394 53.38963 30.606627 52.145624 32.154497 50.901617 30.656222 49.657609 30.487877H48.413599 47.16959Z" fill="#2ca02c" fill-opacity=".15"/>
</g>
<g clip-path="url(#clip_21)">
<path transform="matrix(1,0,0,-1,0,140.00176)" d="M45.925584 30.487877H47.16959 48.413599 49.657609 50.901617 52.145624 53.38963 54.63364 55.877649 57.121656 58.365667 59.609674 60.85368 62.097688 63.341699 64.5857 65.82971 67.07372L68.317729 30.493664 69.56174 30.732514 70.80575 30.562733 72.04975 30.707549 73.29376 30.582785 74.537769 30.61453 75.78178 30.487877 77.02579 30.51594 78.26979 30.487877 79.5138 30.495852 80.75781 30.487877H82.001819 83.24583 84.48984L85.73384 30.493147 86.97785 30.488553 88.221858 30.487877 89.465869 30.575083 90.70988 30.506699 91.95388 30.487877 93.19789 30.497239 94.4419 30.521258 95.685909 30.487877H96.92992 98.17392 99.41793 100.66194 101.905948 103.149959L104.39397 30.525422 105.63797 30.487877H106.88198L108.125988 30.499787 109.369998 30.487877 110.614009 30.502484 111.85801 30.525723 113.10202 30.569323 114.34603 30.487877 115.590038 30.510899 116.834049 30.490437 118.07806 30.487877 119.32206 30.510592 120.56607 30.487877H121.810077 123.054088L124.298099 30.5608 125.5421 30.487877 126.78611 30.500721 128.03012 30.509688 129.27413 30.640978 130.51813 30.700964 131.76215 30.671629 133.00615 30.53813 134.25016 30.588932 135.49417 30.514479 136.73818 30.61939 137.98218 30.55101 139.2262 30.579274 140.4702 30.536259 141.7142 30.521744 142.95822 30.504216 144.20223 30.487877 145.44623 30.507077 146.69025 30.50273 147.93425 30.69795 149.17826 30.658465 150.42226 30.580176 151.66628 30.651877 152.91028 30.690907 154.15428 30.556113 155.3983 30.590214 156.6423 30.699915 157.8863 30.546736 159.13033 30.725077 160.37433 30.65098 161.61833 31.057278 162.86235 30.563055 164.10636 30.533976 165.35036 30.712006V31.46502L164.10636 31.724633 162.86235 31.500634 161.61833 32.737966 160.37433 32.24358 159.13033 31.9554 157.8863 31.297122 156.6423 32.056669 155.3983 31.332762 154.15428 32.09288 152.91028 31.864735 151.66628 31.997117 150.42226 31.501034 149.17826 31.363337 147.93425 31.894923 146.69025 31.89796 145.44623 31.254925 144.20223 31.039784 142.95822 31.31774 141.7142 32.507509 140.4702 31.914256 139.2262 32.249586 137.98218 31.567978 136.73818 31.198184 135.49417 30.61239 134.25016 31.047411 133.00615 30.67169 131.76215 32.29137 130.51813 31.182587 129.27413 31.054774 128.03012 31.19674 126.78611 30.51856 125.5421 30.805716 124.298099 30.819302 123.054088 32.331125 121.810077 30.565352 120.56607 30.545367 119.32206 30.560978 118.07806 30.501017 116.834049 31.090882 115.590038 30.880976 114.34603 30.49828 113.10202 31.371445 111.85801 30.687657 110.614009 30.979458 109.369998 30.487877 108.125988 30.635022 106.88198 30.77259 105.63797 30.48952 104.39397 30.6781 103.149959 30.57466 101.905948 30.600394 100.66194 30.498005 99.41793 30.487877 98.17392 30.51361 96.92992 30.742203 95.685909 30.570006 94.4419 30.640654 93.19789 30.749266 91.95388 30.512789 90.70988 30.599913 89.465869 30.82473 88.221858 30.487877 86.97785 30.524979 85.73384 30.983046 84.48984 30.487877H83.24583L82.001819 30.588347 80.75781 30.487877 79.5138 30.557377 78.26979 30.487877 77.02579 30.588482 75.78178 30.511694 74.537769 31.46093 73.29376 31.121453 72.04975 31.194893 70.80575 30.687058 69.56174 31.277518 68.317729 31.166224 67.07372 30.492257 65.82971 30.487877 64.5857 30.80462 63.341699 30.50704 62.097688 30.501292 60.85368 30.487877H59.609674 58.365667 57.121656L55.877649 30.630234 54.63364 30.487877H53.38963 52.145624 50.901617 49.657609 48.413599 47.16959Z" fill="#d62728" fill-opacity=".15"/>
</g>
<g clip-path="url(#clip_22)">
<path transform="matrix(1,0,0,-1,0,140.00176)" stroke-width="1" stroke-linecap="round" stroke-linejoin="round" fill="none" stroke="#1f77b4" d="M45.925584 31.79934 47.16959 30.509915 48.413599 30.593823 49.657609 30.49787 50.901617 30.541398 52.145624 30.487877 53.38963 30.48993 54.63364 30.531952 55.877649 30.495953 57.121656 30.5325 58.365667 30.56932 59.609674 30.488835 60.85368 30.489108 62.097688 30.523877 63.341699 30.490067 64.5857 30.56097 65.82971 30.529488 67.07372 30.653504 68.317729 30.565489 69.56174 30.632014 70.80575 30.724545 72.04975 30.67294 73.29376 30.72386 74.537769 30.535649 75.78178 30.741793 77.02579 30.908514 78.26979 30.79449 79.5138 31.071267 80.75781 31.132727 82.001819 31.034993 83.24583 31.034445 84.48984 31.284665 85.73384 31.487797 86.97785 31.40553 88.221858 31.333258 89.465869 31.308072 90.70988 31.465622 91.95388 31.659447 93.19789 32.070505 94.4419 31.395949 95.685909 31.417578 96.92992 31.436467 98.17392 31.641652 99.41793 31.611538 100.66194 31.424832 101.905948 31.876679 103.149959 31.89502 104.39397 31.670123 105.63797 31.694489 106.88198 31.700238 108.125988 31.599904 109.369998 31.669165 110.614009 32.11526 111.85801 31.932936 113.10202 31.727477 114.34603 31.940054 115.590038 31.777575 116.834049 31.97879 118.07806 31.72953 119.32206 32.118 120.56607 31.851389 121.810077 31.871237 123.054088 31.910077 124.298099 31.818366 125.5421 31.86559 126.78611 31.863812 128.03012 31.92924 129.27413 31.866002 130.51813 31.974 131.76215 31.958123 133.00615 31.979886 134.25016 32.046274 135.49417 31.851902 136.73818 31.953469 137.98218 31.840268 139.2262 31.90296 140.4702 31.939097 141.7142 32.133878 142.95822 31.975369 144.20223 31.988099 145.44623 32.004117 146.69025 32.054624 147.93425 31.90994 149.17826 31.968115 150.42226 32.202459 151.66628 32.262 152.91028 32.10404 154.15428 32.06051 155.3983 31.94813 156.6423 32.277605 157.8863 32.062017 159.13033 32.03026 160.37433 31.981255 161.61833 31.969758 162.86235 32.095689 164.10636 31.972769 165.35036 32.01096"/>
</g>
<g clip-path="url(#clip_23)">
<path transform="matrix(1,0,0,-1,0,140.00176)" stroke-width="1" stroke-linecap="round" stroke-linejoin="round" fill="none" stroke="#ff7f0e" d="M45.925584 63.14894 47.16959 63.15729 48.413599 63.145658 49.657609 63.166189 50.901617 63.157976 52.145624 63.153459 53.38963 63.143877 54.63364 63.164274 55.877649 63.156606 57.121656 63.14935 58.365667 63.155649 59.609674 63.15606 60.85368 63.14935 62.097688 63.1499 63.341699 63.149217 64.5857 63.14278 65.82971 63.14812 67.07372 61.60984 68.317729 61.35223 69.56174 61.698816 70.80575 50.483964 72.04975 43.882707 73.29376 43.74172 74.537769 43.740488 75.78178 43.741857 77.02579 43.74213 78.26979 43.741037 79.5138 43.7409 80.75781 43.74158 82.001819 43.741445 83.24583 43.74076 84.48984 43.7409 85.73384 43.74569 86.97785 43.741174 88.221858 43.768548 89.465869 43.740488 90.70988 43.78785 91.95388 43.742269 93.19789 43.741174 94.4419 43.82385 95.685909 43.7409 96.92992 44.347146 98.17392 44.739587 99.41793 43.74172 100.66194 43.968397 101.905948 46.547246 103.149959 44.76874 104.39397 44.011377 105.63797 43.8426 106.88198 43.95635 108.125988 43.79565 109.369998 43.970998 110.614009 43.998098 111.85801 43.8786 113.10202 43.809614 114.34603 43.935407 115.590038 43.758008 116.834049 43.78456 118.07806 43.751848 119.32206 43.75527 120.56607 43.793188 121.810077 43.849584 123.054088 43.817827 124.298099 43.753217 125.5421 43.777719 126.78611 43.80085 128.03012 43.75308 129.27413 49.240804 130.51813 47.05569 131.76215 43.741174 133.00615 47.053297 134.25016 47.05518 135.49417 44.23819 136.73818 43.838495 137.98218 43.802358 139.2262 44.272409 140.4702 43.95717 141.7142 43.882707 142.95822 43.80414 144.20223 43.790449 145.44623 43.90844 146.69025 43.80195 147.93425 43.77868 149.17826 44.65855 150.42226 48.00038 151.66628 44.945867 152.91028 43.797296 154.15428 43.809614 155.3983 44.305536 156.6423 44.11513 157.8863 44.219163 159.13033 44.098295 160.37433 44.690038 161.61833 44.24462 162.86235 44.31416 164.10636 44.109384 165.35036 44.29814"/>
</g>
<g clip-path="url(#clip_24)">
<path transform="matrix(1,0,0,-1,0,140.00176)" stroke-width="1" stroke-linecap="round" stroke-linejoin="round" fill="none" stroke="#2ca02c" d="M45.925584 30.487877H47.16959 48.413599 49.657609L50.901617 30.591223 52.145624 31.654656 53.38963 30.556044 54.63364 30.572333 55.877649 31.352696 57.121656 31.133959 58.365667 30.627633 59.609674 30.949168 60.85368 30.714552 62.097688 30.731526 63.341699 30.765883 64.5857 30.785183 65.82971 30.711268 67.07372 31.051281 68.317729 31.11671 69.56174 31.305335 70.80575 31.592375 72.04975 31.1523 73.29376 31.240452 74.537769 33.289297 75.78178 31.517363 77.02579 30.852393 78.26979 31.629607 79.5138 34.648534 80.75781 32.61228 82.001819 31.890093 83.24583 32.1128 84.48984 31.280558 85.73384 31.439478 86.97785 31.737195 88.221858 31.591553 89.465869 31.463295 90.70988 31.45248 91.95388 31.458779 93.19789 31.505318 94.4419 31.392939 95.685909 31.77347 96.92992 32.097608 98.17392 32.18986 99.41793 32.15756 100.66194 33.42796 101.905948 32.124437 103.149959 32.26145 104.39397 32.65047 105.63797 32.1039 106.88198 32.392175 108.125988 33.799867 109.369998 31.850808 110.614009 31.47452 111.85801 31.702565 113.10202 31.586352 114.34603 31.840405 115.590038 31.791949 116.834049 32.055036 118.07806 31.695857 119.32206 31.58991 120.56607 31.580876 121.810077 32.013559 123.054088 31.990426 124.298099 31.79893 125.5421 34.350679 126.78611 31.797423 128.03012 31.711873 129.27413 32.606397 130.51813 31.981392 131.76215 31.984951 133.00615 32.29526 134.25016 31.90556 135.49417 31.884755 136.73818 32.019994 137.98218 31.90556 139.2262 32.463079 140.4702 32.067628 141.7142 31.918564 142.95822 32.158929 144.20223 32.654439 145.44623 32.271036 146.69025 32.277059 147.93425 32.1733 149.17826 32.118 150.42226 32.42256 151.66628 31.870793 152.91028 32.065027 154.15428 32.38793 155.3983 32.642534 156.6423 32.782835 157.8863 32.50346 159.13033 32.55301 160.37433 32.523584 161.61833 32.711385 162.86235 32.893983 164.10636 32.73479 165.35036 33.6649"/>
</g>
<g clip-path="url(#clip_25)">
<path transform="matrix(1,0,0,-1,0,140.00176)" stroke-width="1" stroke-linecap="round" stroke-linejoin="round" fill="none" stroke="#d62728" d="M45.925584 30.487877H47.16959 48.413599 49.657609 50.901617 52.145624 53.38963 54.63364L55.877649 30.559056 57.121656 30.487877H58.365667 59.609674 60.85368L62.097688 30.494584 63.341699 30.497458 64.5857 30.646248 65.82971 30.487877 67.07372 30.490067 68.317729 30.829943 69.56174 31.005015 70.80575 30.624896 72.04975 30.951222 73.29376 30.852118 74.537769 31.03773 75.78178 30.499785 77.02579 30.552212 78.26979 30.487877 79.5138 30.526614 80.75781 30.487877 82.001819 30.538113 83.24583 30.487877H84.48984L85.73384 30.738097 86.97785 30.506766 88.221858 30.487877 89.465869 30.699906 90.70988 30.553307 91.95388 30.500332 93.19789 30.623253 94.4419 30.580956 95.685909 30.52894 96.92992 30.61504 98.17392 30.500744 99.41793 30.487877 100.66194 30.49294 101.905948 30.544135 103.149959 30.531268 104.39397 30.601763 105.63797 30.488698 106.88198 30.630234 108.125988 30.567404 109.369998 30.487877 110.614009 30.74097 111.85801 30.60669 113.10202 30.970385 114.34603 30.493079 115.590038 30.695937 116.834049 30.790659 118.07806 30.494446 119.32206 30.535786 120.56607 30.51662 121.810077 30.526614 123.054088 31.4095 124.298099 30.69005 125.5421 30.646796 126.78611 30.50964 128.03012 30.853213 129.27413 30.847876 130.51813 30.941777 131.76215 31.4815 133.00615 30.60491 134.25016 30.818173 135.49417 30.563435 136.73818 30.908787 137.98218 31.059494 139.2262 31.414429 140.4702 31.225258 141.7142 31.514626 142.95822 30.910977 144.20223 30.76383 145.44623 30.881 146.69025 31.200345 147.93425 31.296437 149.17826 31.0109 150.42226 31.040604 151.66628 31.324498 152.91028 31.27782 154.15428 31.324498 155.3983 30.961487 156.6423 31.378293 157.8863 30.921929 159.13033 31.340239 160.37433 31.44728 161.61833 31.897622 162.86235 31.031844 164.10636 31.129305 165.35036 31.088513"/>
</g>
<g clip-path="url(#clip_26)">
<path transform="matrix(1,0,0,-1,0,140.00176)" stroke-width="1.25" stroke-linecap="butt" stroke-dasharray="1.25,1.25" stroke-linejoin="round" fill="none" stroke="#000000" d="M39.954347 33.90992H171.3216"/>
</g>
<g clip-path="url(#clip_27)">
<path transform="matrix(1,0,0,-1,0,140.00176)" stroke-width="1.5" stroke-linecap="butt" stroke-dasharray="5.55,2.4" stroke-linejoin="round" fill="none" stroke="#000000" d="M65.82971 28.838238V65.13027"/>
</g>
<path transform="matrix(1,0,0,-1,0,140.00176)" stroke-width="1.25" stroke-linecap="square" stroke-miterlimit="10" stroke-linejoin="miter" fill="none" stroke="#333333" d="M39.954347 28.838238V65.13027"/>
<path transform="matrix(1,0,0,-1,0,140.00176)" stroke-width="1.25" stroke-linecap="square" stroke-miterlimit="10" stroke-linejoin="miter" fill="none" stroke="#333333" d="M171.3216 28.838238V65.13027"/>
<path transform="matrix(1,0,0,-1,0,140.00176)" stroke-width="1.25" stroke-linecap="square" stroke-miterlimit="10" stroke-linejoin="miter" fill="none" stroke="#333333" d="M39.954347 28.838238H171.3216"/>
<path transform="matrix(1,0,0,-1,0,140.00176)" stroke-width="1.25" stroke-linecap="square" stroke-miterlimit="10" stroke-linejoin="miter" fill="none" stroke="#333333" d="M39.954347 65.13027H171.3216"/>
<path transform="matrix(1,0,0,-1,0,140.00176)" stroke-width="1" stroke-linecap="round" stroke-linejoin="round" fill="none" stroke="#1f77b4" d="M4.37976 133.67176H11.37976 18.37976"/>
<use data-text="A" xlink:href="#font_15_133" transform="matrix(6.973848,0,0,-6.973848,21.87976,8.779999)"/>
<use data-text="C" xlink:href="#font_15_135" transform="matrix(5.579069,0,0,-5.579069,27.012492,8.779999)"/>
<use data-text="T" xlink:href="#font_15_152" transform="matrix(5.579069,0,0,-5.579069,31.072686,8.779999)"/>
<use data-text="S" xlink:href="#font_15_151" transform="matrix(6.973848,0,0,-6.973848,34.83004,8.779999)"/>
<use data-text="A" xlink:href="#font_15_133" transform="matrix(5.579069,0,0,-5.579069,39.056154,8.779999)"/>
<use data-text="F" xlink:href="#font_15_138" transform="matrix(5.579069,0,0,-5.579069,43.423135,8.779999)"/>
<use data-text="E" xlink:href="#font_15_137" transform="matrix(5.579069,0,0,-5.579069,46.86262,8.779999)"/>
<use data-text="(" xlink:href="#font_15_244" transform="matrix(6.973848,0,0,-6.973848,52.19467,8.779999)"/>
<use data-text="O" xlink:href="#font_15_147" transform="matrix(6.973848,0,0,-6.973848,54.50999,8.779999)"/>
<use data-text="u" xlink:href="#font_15_186" transform="matrix(6.973848,0,0,-6.973848,59.538137,8.779999)"/>
<use data-text="r" xlink:href="#font_15_183" transform="matrix(6.973848,0,0,-6.973848,63.02506,8.779999)"/>
<use data-text="s" xlink:href="#font_15_184" transform="matrix(6.973848,0,0,-6.973848,65.34038,8.779999)"/>
<use data-text=")" xlink:href="#font_15_245" transform="matrix(6.973848,0,0,-6.973848,68.046237,8.779999)"/>
<path transform="matrix(1,0,0,-1,0,140.00176)" stroke-width="1" stroke-linecap="round" stroke-linejoin="round" fill="none" stroke="#ff7f0e" d="M4.37976 123.76198H11.37976 18.37976"/>
<use data-text="U" xlink:href="#font_15_153" transform="matrix(6.973848,0,0,-6.973848,21.87976,18.689774)"/>
<use data-text="N" xlink:href="#font_15_146" transform="matrix(5.579069,0,0,-5.579069,27.263548,18.689774)"/>
<use data-text="I" xlink:href="#font_15_141" transform="matrix(5.579069,0,0,-5.579069,31.63053,18.689774)"/>
<use data-text="F" xlink:href="#font_15_138" transform="matrix(5.579069,0,0,-5.579069,33.828638,18.689774)"/>
<use data-text="O" xlink:href="#font_15_147" transform="matrix(5.579069,0,0,-5.579069,37.268125,18.689774)"/>
<use data-text="R" xlink:href="#font_15_150" transform="matrix(5.579069,0,0,-5.579069,41.635107,18.689774)"/>
<use data-text="M" xlink:href="#font_15_145" transform="matrix(5.579069,0,0,-5.579069,45.695299,18.689774)"/>
<path transform="matrix(1,0,0,-1,0,140.00176)" stroke-width="1" stroke-linecap="round" stroke-linejoin="round" fill="none" stroke="#2ca02c" d="M75.9962 133.67176H82.9962 89.9962"/>
<use data-text="O" xlink:href="#font_15_147" transform="matrix(6.973848,0,0,-6.973848,93.4962,8.779999)"/>
<use data-text="P" xlink:href="#font_15_148" transform="matrix(5.579069,0,0,-5.579069,98.87999,8.779999)"/>
<use data-text="T" xlink:href="#font_15_152" transform="matrix(5.579069,0,0,-5.579069,102.31947,8.779999)"/>
<use data-text="I" xlink:href="#font_15_141" transform="matrix(5.579069,0,0,-5.579069,106.06573,8.779999)"/>
<use data-text="M" xlink:href="#font_15_145" transform="matrix(5.579069,0,0,-5.579069,108.26383,8.779999)"/>
<use data-text="I" xlink:href="#font_15_141" transform="matrix(5.579069,0,0,-5.579069,113.56539,8.779999)"/>
<use data-text="S" xlink:href="#font_15_151" transform="matrix(5.579069,0,0,-5.579069,115.7635,8.779999)"/>
<use data-text="T" xlink:href="#font_15_152" transform="matrix(5.579069,0,0,-5.579069,119.20298,8.779999)"/>
<use data-text="I" xlink:href="#font_15_141" transform="matrix(5.579069,0,0,-5.579069,122.949237,8.779999)"/>
<use data-text="C" xlink:href="#font_15_135" transform="matrix(5.579069,0,0,-5.579069,125.14734,8.779999)"/>
<path transform="matrix(1,0,0,-1,0,140.00176)" stroke-width="1" stroke-linecap="round" stroke-linejoin="round" fill="none" stroke="#d62728" d="M75.9962 123.76198H82.9962 89.9962"/>
<use data-text="G" xlink:href="#font_15_139" transform="matrix(6.973848,0,0,-6.973848,93.4962,18.689774)"/>
<use data-text="R" xlink:href="#font_15_150" transform="matrix(5.579069,0,0,-5.579069,98.87999,18.689774)"/>
<use data-text="E" xlink:href="#font_15_137" transform="matrix(5.579069,0,0,-5.579069,102.940189,18.689774)"/>
<use data-text="E" xlink:href="#font_15_137" transform="matrix(5.579069,0,0,-5.579069,106.68644,18.689774)"/>
<use data-text="D" xlink:href="#font_15_136" transform="matrix(5.579069,0,0,-5.579069,110.43269,18.689774)"/>
<use data-text="Y" xlink:href="#font_15_157" transform="matrix(5.579069,0,0,-5.579069,114.4552,18.689774)"/>
</svg>
